<?xml version='1.0' encoding='UTF-8' standalone='no'?>
<!-- Created with Fritzing (http://www.fritzing.org/) -->
<svg xmlns="http://www.w3.org/2000/svg" version="1.2" xmlns:svg="http://www.w3.org/2000/svg" x="0in" y="0in" width="2.3622in"  viewBox="0 0 170.079 99.2126" baseProfile="tiny" height="1.37795in">
 <g transform="matrix(-1, 0, 0, 1, 170.079, 0)">
  <g partID="12452970">
   <g id="board">
    <rect stroke="black" width="169.503" x="0.288" y="0.288" fill="none" id="boardoutline" fill-opacity="0.5" stroke-width="0.5" height="98.6366"/>
   </g>
  </g>
  <g partID="854242581">
   <g transform="translate(34.3648,94.2133)">
    <g transform="matrix(0,-1,1,0,0,0)">
     <g id="silkscreen0" flipped="1">
      <g transform="matrix(-1, 0, 0, 1, 19.152, 0)">
       <g>
        <g>
         <g>
          <line stroke="black" y2="16.5827" class="other" x1="18.864" y1="7.22268" stroke-linecap="round" x2="18.864" stroke-width="0.576"/>
          <line stroke="black" y2="16.5827" class="other" x1="18.864" y1="16.5827" stroke-linecap="round" x2="0.288" stroke-width="0.576"/>
          <line stroke="black" y2="7.22268" class="other" x1="0.288" y1="16.5827" stroke-linecap="round" x2="0.288" stroke-width="0.576"/>
          <line stroke="black" y2="7.22268" class="other" x1="0.288" y1="7.22268" stroke-linecap="round" x2="18.864" stroke-width="0.576"/>
         </g>
        </g>
       </g>
      </g>
     </g>
    </g>
   </g>
  </g>
  <g id="partLabel" partID="854242580">
   <g transform="translate(42.5931,87.6769)">
    <g stroke="none" font-style="normal" font-weight="normal" fill="#000000" id="silkscreen0Label" fill-opacity="1" font-size="5" font-family="'OCRA'">
     <text x="0" y="3.75">U1</text>
    </g>
   </g>
  </g>
  <g id="partLabel" partID="854313000">
   <g transform="translate(24.3793,4.37319)">
    <g transform="matrix(-1,0,0,1,0,0)">
     <g stroke="none" font-style="normal" font-weight="normal" fill="#000000" id="silkscreen0Label" fill-opacity="1" font-size="5" font-family="'OCRA'">
      <text x="0" y="3.75">Jumper4</text>
     </g>
    </g>
   </g>
  </g>
  <g partID="854300910">
   <g transform="translate(19.2313,76.4652)">
    <g id="copper0">
     <g id="copper1">
      <!--  <rect width="55" x="10" y="35" fill="none" height="55" stroke="rgb(255, 191, 0)" stroke-width="20" /> -->
      <circle stroke="white" cx="2.7" fill="white" r="1.98" id="connector0pin" cy="4.5" stroke-width="2.16"/>
      <circle stroke="white" cx="9.9" fill="white" r="1.98" id="connector1pin" cy="4.5" stroke-width="2.16"/>
     </g>
    </g>
   </g>
  </g>
  <g partID="854272300">
   <g transform="translate(41.3713,21.2052)">
    <g id="copper0">
     <circle stroke="white" cx="5.04" fill="white" r="2.088" id="connector0pin" cy="5.04" stroke-width="2.16"/>
     <circle stroke="white" cx="5.04" fill="white" r="2.088" id="connector1pin" cy="12.24" stroke-width="2.16"/>
     <circle stroke="white" cx="5.04" fill="white" r="2.088" id="connector2pin" cy="19.44" stroke-width="2.16"/>
     <circle stroke="white" cx="5.04" fill="white" r="2.088" id="connector3pin" cy="26.64" stroke-width="2.16"/>
    </g>
   </g>
  </g>
  <g partID="854271610">
   <g transform="translate(32.7731,84.5332)">
    <g transform="matrix(0,1,-1,0,0,0)">
     <g id="copper0">
      <circle stroke="white" cx="5.04" fill="white" r="2.088" id="connector0pin" cy="5.04" stroke-width="2.16"/>
      <circle stroke="white" cx="5.04" fill="white" r="2.088" id="connector1pin" cy="12.24" stroke-width="2.16"/>
      <circle stroke="white" cx="5.04" fill="white" r="2.088" id="connector2pin" cy="19.44" stroke-width="2.16"/>
      <circle stroke="white" cx="5.04" fill="white" r="2.088" id="connector3pin" cy="26.64" stroke-width="2.16"/>
     </g>
    </g>
   </g>
  </g>
  <g partID="854279880">
   <g transform="translate(6.8113,75.9252)">
    <g transform="matrix(0,-1,1,0,0,0)">
     <g id="copper0">
      <circle stroke="white" cx="5.04" fill="white" r="2.088" id="connector0pin" cy="5.04" stroke-width="2.16"/>
      <circle stroke="white" cx="5.04" fill="white" r="2.088" id="connector1pin" cy="12.24" stroke-width="2.16"/>
      <circle stroke="white" cx="5.04" fill="white" r="2.088" id="connector2pin" cy="19.44" stroke-width="2.16"/>
      <circle stroke="white" cx="5.04" fill="white" r="2.088" id="connector3pin" cy="26.64" stroke-width="2.16"/>
      <circle stroke="white" cx="5.04" fill="white" r="2.088" id="connector0pin" cy="5.04" stroke-width="2.16"/>
      <circle stroke="white" cx="5.04" fill="white" r="2.088" id="connector1pin" cy="12.24" stroke-width="2.16"/>
      <circle stroke="white" cx="5.04" fill="white" r="2.088" id="connector2pin" cy="19.44" stroke-width="2.16"/>
      <circle stroke="white" cx="5.04" fill="white" r="2.088" id="connector3pin" cy="26.64" stroke-width="2.16"/>
      <circle stroke="white" cx="12.24" fill="white" r="2.088" id="connector4pin" cy="26.64" stroke-width="2.16"/>
      <circle stroke="white" cx="12.24" fill="white" r="2.088" id="connector5pin" cy="19.44" stroke-width="2.16"/>
      <circle stroke="white" cx="12.24" fill="white" r="2.088" id="connector6pin" cy="12.24" stroke-width="2.16"/>
      <circle stroke="white" cx="12.24" fill="white" r="2.088" id="connector7pin" cy="5.04" stroke-width="2.16"/>
     </g>
    </g>
   </g>
  </g>
  <g partID="854272540">
   <g transform="translate(84.5375,89.5713)">
    <g transform="matrix(-1,0,0,-1,0,0)">
     <g id="copper0">
      <circle stroke="white" cx="20.8462" fill="white" r="1.98" id="connector0pad" cy="15.6024" stroke-width="2.16"/>
      <circle stroke="white" cx="2.42064" fill="white" r="1.98" id="connector1pad" cy="15.6024" stroke-width="2.16"/>
      <circle stroke="white" cx="20.8462" fill="white" r="1.98" id="connector2pad" cy="2.84616" stroke-width="2.16"/>
      <circle stroke="white" cx="2.42064" fill="white" r="1.98" id="connector3pad" cy="2.84616" stroke-width="2.16"/>
     </g>
    </g>
   </g>
  </g>
  <g partID="854242580">
   <g transform="translate(34.3648,94.2133)">
    <g transform="matrix(0,-1,1,0,0,0)">
     <g id="copper0" flipped="1">
      <g transform="matrix(-1, 0, 0, 1, 19.152, 0)">
       <g>
        <g>
         <g>
          <rect stroke="white" connectorname="1" x="1.296" y="17.5187" width="3.456" fill="white" stroke-linecap="round" id="connector0pad" height="6.336" stroke-width="0.72"/>
          <rect stroke="white" connectorname="2" x="7.848" y="17.5187" width="3.456" fill="white" stroke-linecap="round" id="connector1pad" height="6.336" stroke-width="0.72"/>
          <rect stroke="white" connectorname="3" x="14.4" y="17.5187" width="3.456" fill="white" stroke-linecap="round" id="connector2pad" height="6.336" stroke-width="0.72"/>
          <rect stroke="white" connectorname="4" x="4.47364" y="0" width="10.2047" fill="white" stroke-linecap="round" id="connector3pad" height="6.23622" stroke-width="0.72"/>
          <g id="copper0"/>
         </g>
         <g/>
        </g>
       </g>
      </g>
     </g>
    </g>
   </g>
  </g>
  <g partID="854105480">
   <g transform="translate(136.037,36.2968)">
    <g transform="matrix(0,1,-1,0,0,0)">
     <g transform="matrix(1, 0, 0, 1, 0, -795.118)">
      <g id="copper0">
       <g>
        <g id="copper1">
         <g transform="matrix(1, 0, 0, 1, 0, 795.118)">
          <g id="0.3.1.0">
           <path stroke="white" d="m10.4882,23.3858a3.25984,3.25984,0,1,1,-6.51969,0,3.25984,3.25984,0,1,1,6.51969,0z" fill="white" style="opacity:0.98000004;stroke-miterlimit:4;stroke-dasharray:none" stroke-opacity="1" id="connector2pin" stroke-width="3.55465"/>
          </g>
         </g>
         <g transform="matrix(1, 0, 0, 1, 5.81102, 812.126)">
          <g id="0.3.1.1">
           <path stroke="white" d="m10.4882,23.3858a3.25984,3.25984,0,1,1,-6.51969,0,3.25984,3.25984,0,1,1,6.51969,0z" fill="white" style="opacity:0.98000004;stroke-miterlimit:4;stroke-dasharray:none" stroke-opacity="1" id="path3782-7" stroke-width="3.55465"/>
          </g>
         </g>
         <g transform="matrix(1, 0, 0, 1, 40.252, 812.126)">
          <g id="0.3.1.2">
           <path stroke="white" d="m10.4882,23.3858a3.25984,3.25984,0,1,1,-6.51969,0,3.25984,3.25984,0,1,1,6.51969,0z" fill="white" style="opacity:0.98000004;stroke-miterlimit:4;stroke-dasharray:none" stroke-opacity="1" id="path3782-7-5" stroke-width="3.55465"/>
          </g>
         </g>
         <g transform="matrix(1, 0, 0, 1, 5.81102, 812.126)">
          <g id="0.3.1.3">
           <path stroke="white" d="m10.4882,23.3858a3.25984,3.25984,0,1,1,-6.51969,0,3.25984,3.25984,0,1,1,6.51969,0z" fill="white" style="opacity:0.98000004;stroke-miterlimit:4;stroke-dasharray:none" stroke-opacity="1" id="connector1pin" stroke-width="3.55465"/>
          </g>
         </g>
         <g transform="matrix(1, 0, 0, 1, 40.252, 812.126)">
          <g id="0.3.1.4">
           <path stroke="white" d="m10.4882,23.3858a3.25984,3.25984,0,1,1,-6.51969,0,3.25984,3.25984,0,1,1,6.51969,0z" fill="white" style="opacity:0.98000004;stroke-miterlimit:4;stroke-dasharray:none" stroke-opacity="1" id="connector0pin" stroke-width="3.55465"/>
          </g>
         </g>
         <g transform="matrix(1, 0, 0, -1, 5.81102, 824.882)">
          <g id="0.3.1.5">
           <path stroke="white" d="m10.4882,23.3858a3.25984,3.25984,0,1,1,-6.51969,0,3.25984,3.25984,0,1,1,6.51969,0z" fill="white" style="opacity:0.98000004;stroke-miterlimit:4;stroke-dasharray:none" stroke-opacity="1" id="connector4pin" stroke-width="3.55465"/>
          </g>
         </g>
         <g transform="matrix(1, 0, 0, -1, 40.252, 824.882)">
          <g id="0.3.1.6">
           <path stroke="white" d="m10.4882,23.3858a3.25984,3.25984,0,1,1,-6.51969,0,3.25984,3.25984,0,1,1,6.51969,0z" fill="white" style="opacity:0.98000004;stroke-miterlimit:4;stroke-dasharray:none" stroke-opacity="1" id="connector5pin" stroke-width="3.55465"/>
          </g>
         </g>
        </g>
       </g>
      </g>
     </g>
    </g>
   </g>
  </g>
  <g partID="854106260">
   <g transform="translate(118.339,28.7652)">
    <g transform="matrix(-1,0,0,-1,0,0)">
     <g id="copper0">
      <circle stroke="white" connectorname="A" cx="2.808" fill="white" r="2.11266" id="connector0pad" cy="3.96" stroke-width="2.11068"/>
      <circle stroke="white" connectorname="C" cx="31.608" fill="white" r="2.11266" id="connector1pad" cy="3.96" stroke-width="2.11068"/>
     </g>
    </g>
   </g>
  </g>
  <g partID="854181420">
   <g transform="translate(83.9233,3.56519)">
    <g id="copper0">
     <circle stroke="white" connectorname="A" cx="2.808" fill="white" r="2.11266" id="connector0pad" cy="3.96" stroke-width="2.11068"/>
     <circle stroke="white" connectorname="C" cx="31.608" fill="white" r="2.11266" id="connector1pad" cy="3.96" stroke-width="2.11068"/>
    </g>
   </g>
  </g>
  <g partID="854106690">
   <g transform="translate(130.651,12.2772)">
    <g id="copper0">
     <circle stroke="white" cx="3.6" fill="white" r="1.98" id="connector0pin" cy="8.208" stroke-width="2.16"/>
     <circle stroke="white" cx="10.8" fill="white" r="1.98" id="connector1pin" cy="8.208" stroke-width="2.16"/>
     <circle stroke="white" cx="18" fill="white" r="1.98" id="connector2pin" cy="8.208" stroke-width="2.16"/>
    </g>
   </g>
  </g>
  <g partID="854321190">
   <g transform="translate(153.858,17.7524)">
    <g transform="matrix(0,-1,1,0,0,0)">
     <g id="copper0">
      <g id="copper1">
       <circle stroke="white" cx="8.7872" fill="white" r="1.7008" id="connector1pad" stroke-width="1.85384" cy="10.6336"/>
       <rect stroke="white" x="7.0864" y="8.9328" width="3.4016" fill="white" stroke-width="1.85384" height="3.4016"/>
       <circle stroke="white" cx="8.7872" fill="white" r="1.7008" id="connector0pad" stroke-width="1.85384" cy="3.5464"/>
      </g>
     </g>
    </g>
   </g>
  </g>
  <g partID="854183770">
   <g transform="translate(118.231,8.78519)">
    <g transform="matrix(1,3.88578e-16,-3.88578e-16,1,0,0)">
     <g id="copper0">
      <g id="copper1">
       <!-- <rect width="55" x="35" y="35" fill="none" height="55" stroke="rgb(255, 191, 0)" stroke-width="20" /> -->
       <circle stroke="white" cx="4.5" fill="white" r="1.98" id="connector0pin" cy="4.5" stroke-width="2.16"/>
       <circle stroke="white" cx="11.7" fill="white" r="1.98" id="connector1pin" cy="4.5" stroke-width="2.16"/>
      </g>
     </g>
    </g>
   </g>
  </g>
  <g partID="854132900">
   <g transform="translate(66.7513,49.1052)">
    <g transform="matrix(-2.77556e-16,1,-1,-2.77556e-16,0,0)">
     <g id="copper0">
      <g id="copper1">
       <!-- <rect width="55" x="35" y="35" fill="none" height="55" stroke="rgb(255, 191, 0)" stroke-width="20" /> -->
       <circle stroke="white" cx="4.5" fill="white" r="1.98" id="connector0pin" cy="4.5" stroke-width="2.16"/>
       <circle stroke="white" cx="11.7" fill="white" r="1.98" id="connector1pin" cy="4.5" stroke-width="2.16"/>
      </g>
     </g>
    </g>
   </g>
  </g>
  <g partID="854126210">
   <g transform="translate(148.471,10.5852)">
    <g transform="matrix(-1,0,0,-1,0,0)">
     <g id="copper0">
      <g id="copper1">
       <!--  <rect width="55" x="10" y="35" fill="none" height="55" stroke="rgb(255, 191, 0)" stroke-width="20" /> -->
       <circle stroke="white" cx="2.7" fill="white" r="1.98" id="connector0pin" cy="4.5" stroke-width="2.16"/>
       <circle stroke="white" cx="9.9" fill="white" r="1.98" id="connector1pin" cy="4.5" stroke-width="2.16"/>
      </g>
     </g>
    </g>
   </g>
  </g>
  <g partID="854110300">
   <g transform="translate(167.292,30.6588)">
    <g transform="matrix(-1,0,0,-1,0,0)">
     <g id="copper0">
      <g id="copper1">
       <!--  <rect width="55" x="10" y="35" fill="none" height="55" stroke="rgb(255, 191, 0)" stroke-width="20" /> -->
       <circle stroke="white" cx="2.7" fill="white" r="1.98" id="connector0pin" cy="4.5" stroke-width="2.16"/>
       <circle stroke="white" cx="9.9" fill="white" r="1.98" id="connector1pin" cy="4.5" stroke-width="2.16"/>
      </g>
     </g>
    </g>
   </g>
  </g>
  <g partID="854112790">
   <g transform="translate(82.3206,33.3998)">
    <g transform="matrix(-1,0,0,-1,0,0)">
     <g id="copper0">
      <circle stroke="white" connectorname="PWR" cx="5.66929" fill="white" r="2.12598" id="connector2pad" cy="2.83465" stroke-width="2.13732"/>
      <path stroke="white" d="m8.50393,0a2.83464,2.83465,0,0,1,2.83464,2.83465l0,0a2.83464,2.83465,0,0,1,-2.83464,2.83465l-5.66929,0a2.83464,2.83465,0,0,1,-2.83464,-2.83465l0,0a2.83464,2.83465,0,0,1,2.83464,-2.83465l5.66929,0zM4.25197,2.83465a1.41732,1.41732,0,1,0,2.83464,0,1.41732,1.41732,0,1,0,-2.83464,0z" fill="white" stroke-width="0.72"/>
      <circle stroke="white" connectorname="GND@1" cx="5.66929" fill="white" r="2.12598" id="connector0pad" cy="20.6929" stroke-width="2.13732"/>
      <path stroke="white" d="m8.50393,17.8583a2.83464,2.83465,0,0,1,2.83464,2.83465l0,0a2.83464,2.83465,0,0,1,-2.83464,2.83465l-5.66929,0a2.83464,2.83465,0,0,1,-2.83464,-2.83465l0,0a2.83464,2.83465,0,0,1,2.83464,-2.83465l5.66929,0zM4.25197,20.6929a1.41732,1.41732,0,1,0,2.83464,0,1.41732,1.41732,0,1,0,-2.83464,0z" fill="white" stroke-width="0.72"/>
      <circle stroke="white" connectorname="GND@2" cx="19.8425" fill="white" r="2.12598" id="connector1pad" cy="11.3386" stroke-width="2.13732"/>
      <path stroke="white" d="m19.8425,5.66929a2.83464,2.83465,0,0,1,2.83464,2.83465l0,5.66929a2.83464,2.83465,0,0,1,-2.83464,2.83465l0,0a2.83464,2.83465,0,0,1,-2.83464,-2.83465l0,-5.66929a2.83464,2.83465,0,0,1,2.83464,-2.83465l0,0zM18.4252,11.3386a1.41732,1.41732,0,1,0,2.83464,0,1.41732,1.41732,0,1,0,-2.83464,0z" fill="white" stroke-width="0.72"/>
     </g>
    </g>
   </g>
  </g>
  <g partID="854121490">
   <g transform="translate(138.571,42.2921)">
    <g id="copper0">
     <rect stroke="white" width="7.10929" x="10.8454" y="5.33197" fill="white" id="square" height="7.10929" stroke-width="2.16"/>
     <circle stroke="white" cx="14.4" fill="white" r="3.55465" id="connector0pin" cy="8.8866" stroke-width="2.16"/>
     <circle stroke="white" cx="14.4" fill="white" r="3.55465" id="connector1pin" cy="23.0599" stroke-width="2.16"/>
     <circle stroke="white" cx="14.4" fill="white" r="3.55465" id="connector2pin" cy="37.2331" stroke-width="2.16"/>
    </g>
   </g>
  </g>
  <g partID="12679620">
   <g transform="translate(57.5713,71.2452)">
    <g transform="matrix(-1,0,0,-1,0,0)">
     <g id="copper0">
      <rect stroke="white" width="3.96" x="1.98" y="5.58" fill="white" id="rect11" height="3.96" stroke-width="2.16"/>
      <circle stroke="white" cx="3.96" fill="white" r="1.98" id="connector0pin" cy="7.56" stroke-width="2.16"/>
      <circle stroke="white" cx="11.16" fill="white" r="1.98" id="connector1pin" cy="7.56" stroke-width="2.16"/>
     </g>
    </g>
   </g>
  </g>
  <g partID="854167040">
   <g transform="translate(41.6593,28.6932)">
    <g id="copper0">
     <circle stroke="white" cx="4.752" fill="white" r="1.98" id="connector0pad" cy="4.752" stroke-width="2.16"/>
     <circle stroke="white" cx="20.592" fill="white" r="1.98" id="connector1pad" cy="16.272" stroke-width="2.16"/>
    </g>
   </g>
  </g>
  <g partID="854313630">
   <g transform="translate(39.4273,23.5452)">
    <g transform="matrix(0,1,-1,0,0,0)">
     <g id="copper0">
      <g id="copper1">
       <!-- <rect width="55" x="10" y="15.5" fill="none" height="55" stroke="rgb(255, 191, 0)" stroke-width="20" />  -->
       <circle stroke="white" cx="2.7" fill="white" r="1.98" id="connector0pin" cy="3.096" stroke-width="2.16"/>
       <circle stroke="white" cx="31.5" fill="white" r="1.98" id="connector1pin" cy="3.096" stroke-width="2.16"/>
      </g>
     </g>
    </g>
   </g>
  </g>
  <g partID="854313000">
   <g transform="translate(24.3793,9.97319)">
    <g id="copper0">
     <circle stroke="white" cx="4.752" fill="white" r="1.98" id="connector0pad" cy="4.752" stroke-width="2.16"/>
     <circle stroke="white" cx="4.752" fill="white" r="1.98" id="connector1pad" cy="29.232" stroke-width="2.16"/>
    </g>
   </g>
  </g>
 </g>
</svg>
