<?xml version='1.0' encoding='UTF-8' standalone='no'?>
<!-- Created with Fritzing (http://www.fritzing.org/) -->
<svg xmlns="http://www.w3.org/2000/svg" version="1.2" xmlns:svg="http://www.w3.org/2000/svg" x="0in" y="0in" width="2.3622in"  viewBox="0 0 170.079 99.2126" baseProfile="tiny" height="1.37795in">
 <g transform="matrix(-1, 0, 0, 1, 170.079, 0)">
  <g partID="12452970">
   <g id="board">
    <rect stroke="black" width="169.503" x="0.288" y="0.288" fill="none" id="boardoutline" fill-opacity="0.5" stroke-width="0.5" height="98.6366"/>
   </g>
  </g>
  <g partID="854300911">
   <g transform="translate(19.2313,76.4652)">
    <g id="silkscreen">
     <circle stroke="black" cx="9.9" fill="none" r="4.104" cy="4.5" stroke-width="0.72"/>
     <rect stroke="black" width="1.44" x="5.58" y="3.78" fill="black" height="1.44" stroke-width="0.72"/>
    </g>
   </g>
  </g>
  <g partID="854272301">
   <g transform="translate(41.3713,21.2052)">
    <g id="silkscreen">
     <line stroke="black" y2="30.24" x1="1.44" y1="1.44" x2="1.44" stroke-width="0.72"/>
     <line stroke="black" y2="30.24" x1="1.44" y1="30.24" x2="8.64" stroke-width="0.72"/>
     <line stroke="black" y2="1.44" x1="8.64" y1="30.24" x2="8.64" stroke-width="0.72"/>
     <line stroke="black" y2="1.44" x1="8.64" y1="1.44" x2="1.44" stroke-width="0.72"/>
     <line stroke="black" y2="1.44" x1="1.44" y1="3.96" x2="3.96" stroke-width="0.36"/>
     <!-- 120 -->
    </g>
   </g>
  </g>
  <g partID="854271611">
   <g transform="translate(32.7731,84.5332)">
    <g transform="matrix(0,1,-1,0,0,0)">
     <g id="silkscreen">
      <line stroke="black" y2="30.24" x1="1.44" y1="1.44" x2="1.44" stroke-width="0.72"/>
      <line stroke="black" y2="30.24" x1="1.44" y1="30.24" x2="8.64" stroke-width="0.72"/>
      <line stroke="black" y2="1.44" x1="8.64" y1="30.24" x2="8.64" stroke-width="0.72"/>
      <line stroke="black" y2="1.44" x1="8.64" y1="1.44" x2="1.44" stroke-width="0.72"/>
      <line stroke="black" y2="1.44" x1="1.44" y1="3.96" x2="3.96" stroke-width="0.36"/>
      <!-- 120 -->
     </g>
    </g>
   </g>
  </g>
  <g partID="854279881">
   <g transform="translate(6.8113,75.9252)">
    <g transform="matrix(0,-1,1,0,0,0)">
     <g id="silkscreen">
      <line stroke="black" y2="30.24" x1="1.44" y1="1.44" x2="1.44" stroke-width="0.72"/>
      <line stroke="black" y2="30.24" x1="1.44" y1="30.24" x2="15.84" stroke-width="0.72"/>
      <line stroke="black" y2="1.44" x1="15.84" y1="30.24" x2="15.84" stroke-width="0.72"/>
      <line stroke="black" y2="1.44" x1="15.84" y1="1.44" x2="1.44" stroke-width="0.72"/>
      <line stroke="black" y2="1.44" x1="1.44" y1="3.96" x2="3.96" stroke-width="0.36"/>
      <!-- 120 -->
     </g>
    </g>
   </g>
  </g>
  <g partID="854272541">
   <g transform="translate(84.5375,89.5713)">
    <g transform="matrix(-1,0,0,-1,0,0)">
     <g id="silkscreen">
      <line stroke="black" y2="12.0586" x1="20.137" y1="6.38928" x2="20.137" stroke-width="0.72"/>
      <line stroke="black" y2="0.72" x1="5.96376" y1="0.72" x2="18.0115" stroke-width="0.72"/>
      <line stroke="black" y2="17.7278" x1="5.96376" y1="17.7278" x2="18.0115" stroke-width="0.72"/>
      <line stroke="black" y2="12.0586" x1="3.12912" y1="6.38928" x2="3.12912" stroke-width="0.72"/>
      <line stroke="black" y2="10.6416" x1="11.633" y1="7.80696" x2="11.633" stroke-width="0.72"/>
      <line stroke="black" y2="9.22392" x1="13.0507" y1="9.22392" x2="10.2161" stroke-width="0.72"/>
     </g>
    </g>
   </g>
  </g>
  <g partID="854105481">
   <g transform="translate(136.037,36.2968)">
    <g transform="matrix(0,1,-1,0,0,0)">
     <g transform="matrix(1, 0, 0, 1, 0, -795.118)">
      <g id="silkscreen">
       <g>
        <g transform="matrix(1, 0, 0, 1, 0, 795.118)">
         <g id="0.3.0.0">
          <path stroke="black" d="m0,46.7717,63.7795,0,0,-46.7717,-63.7795,0z" fill="none" style="stroke-linecap:butt;stroke-linejoin:miter;stroke-miterlimit:4;stroke-dasharray:none" stroke-opacity="1" id="path3761" stroke-width="0.79937"/>
         </g>
        </g>
       </g>
      </g>
     </g>
    </g>
   </g>
  </g>
  <g partID="854106261">
   <g transform="translate(118.339,28.7652)">
    <g transform="matrix(-1,0,0,-1,0,0)">
     <g id="silkscreen">
      <line stroke="black" y2="0.36" class="other" x1="26.208" y1="0.36" stroke-linecap="round" x2="22.608" stroke-width="0.72"/>
      <line stroke="black" y2="0.36" class="other" x1="22.608" y1="0.36" stroke-linecap="round" x2="8.208" stroke-width="0.72"/>
      <line stroke="black" y2="3.96" class="other" x1="8.208" y1="0.36" stroke-linecap="round" x2="8.208" stroke-width="0.72"/>
      <line stroke="black" y2="7.56" class="other" x1="8.208" y1="3.96" stroke-linecap="round" x2="8.208" stroke-width="0.72"/>
      <line stroke="black" y2="7.56" class="other" x1="8.208" y1="7.56" stroke-linecap="round" x2="22.608" stroke-width="0.72"/>
      <line stroke="black" y2="7.56" class="other" x1="22.608" y1="7.56" stroke-linecap="round" x2="26.208" stroke-width="0.72"/>
      <line stroke="black" y2="3.96" class="other" x1="26.208" y1="7.56" stroke-linecap="round" x2="26.208" stroke-width="0.72"/>
      <line stroke="black" y2="0.36" class="other" x1="26.208" y1="3.96" stroke-linecap="round" x2="26.208" stroke-width="0.72"/>
      <line stroke="black" y2="7.56" class="other" x1="22.608" y1="0.36" stroke-linecap="round" x2="22.608" stroke-width="0.72"/>
      <line stroke="black" y2="3.96" class="other" x1="8.208" y1="3.96" stroke-linecap="round" x2="6.408" stroke-width="0.72"/>
      <line stroke="black" y2="3.96" class="other" x1="26.208" y1="3.96" stroke-linecap="round" x2="28.008" stroke-width="0.72"/>
     </g>
    </g>
   </g>
  </g>
  <g partID="854181421">
   <g transform="translate(83.9233,3.56519)">
    <g id="silkscreen">
     <line stroke="black" y2="0.36" class="other" x1="26.208" y1="0.36" stroke-linecap="round" x2="22.608" stroke-width="0.72"/>
     <line stroke="black" y2="0.36" class="other" x1="22.608" y1="0.36" stroke-linecap="round" x2="8.208" stroke-width="0.72"/>
     <line stroke="black" y2="3.96" class="other" x1="8.208" y1="0.36" stroke-linecap="round" x2="8.208" stroke-width="0.72"/>
     <line stroke="black" y2="7.56" class="other" x1="8.208" y1="3.96" stroke-linecap="round" x2="8.208" stroke-width="0.72"/>
     <line stroke="black" y2="7.56" class="other" x1="8.208" y1="7.56" stroke-linecap="round" x2="22.608" stroke-width="0.72"/>
     <line stroke="black" y2="7.56" class="other" x1="22.608" y1="7.56" stroke-linecap="round" x2="26.208" stroke-width="0.72"/>
     <line stroke="black" y2="3.96" class="other" x1="26.208" y1="7.56" stroke-linecap="round" x2="26.208" stroke-width="0.72"/>
     <line stroke="black" y2="0.36" class="other" x1="26.208" y1="3.96" stroke-linecap="round" x2="26.208" stroke-width="0.72"/>
     <line stroke="black" y2="7.56" class="other" x1="22.608" y1="0.36" stroke-linecap="round" x2="22.608" stroke-width="0.72"/>
     <line stroke="black" y2="3.96" class="other" x1="8.208" y1="3.96" stroke-linecap="round" x2="6.408" stroke-width="0.72"/>
     <line stroke="black" y2="3.96" class="other" x1="26.208" y1="3.96" stroke-linecap="round" x2="28.008" stroke-width="0.72"/>
    </g>
   </g>
  </g>
  <g partID="854106691">
   <g transform="translate(130.651,12.2772)">
    <g id="silkscreen">
     <line stroke="black" y2="3.6" x1="5.76" y1="3.6" id="line7" x2="15.84" stroke-width="0.72"/>
     <path stroke="black" d="M16.7479,11.2431A6.11074,3.79092,0,0,1,4.52687,11.2864" style="opacity:1;fill-rule:nonzero;stroke-linecap:round;stroke-linejoin:round;stroke-miterlimit:4;stroke-dasharray:none;" fill="none" stroke-opacity="1" id="path2413" fill-opacity="1" stroke-width="0.72"/>
    </g>
   </g>
  </g>
  <g partID="854183771">
   <g transform="translate(118.231,8.78519)">
    <g transform="matrix(1,3.88578e-16,-3.88578e-16,1,0,0)">
     <g id="silkscreen">
      <circle stroke="black" cx="4.5" fill="none" r="4.104" cy="4.5" stroke-width="0.72"/>
      <rect stroke="black" width="1.44" x="7.38" y="3.78" fill="black" height="1.44" stroke-width="0.72"/>
     </g>
    </g>
   </g>
  </g>
  <g partID="12736870">
   <g transform="translate(73.0377,-0.55401)">
    <g id="silkscreen">
     <text text-anchor="middle" y="6.48" x="7.2" fill="black" id="label" xmlns:xml="http://www.w3.org/XML/1998/namespace" stroke-width="0" font-size="7.2" font-family="OCRA" xml:space="preserve">5v</text>
    </g>
   </g>
  </g>
  <g partID="854132901">
   <g transform="translate(66.7513,49.1052)">
    <g transform="matrix(-2.77556e-16,1,-1,-2.77556e-16,0,0)">
     <g id="silkscreen">
      <circle stroke="black" cx="4.5" fill="none" r="4.104" cy="4.5" stroke-width="0.72"/>
      <rect stroke="black" width="1.44" x="7.38" y="3.78" fill="black" height="1.44" stroke-width="0.72"/>
     </g>
    </g>
   </g>
  </g>
  <g partID="854126211">
   <g transform="translate(148.471,10.5852)">
    <g transform="matrix(-1,0,0,-1,0,0)">
     <g id="silkscreen">
      <circle stroke="black" cx="9.9" fill="none" r="4.104" cy="4.5" stroke-width="0.72"/>
      <rect stroke="black" width="1.44" x="5.58" y="3.78" fill="black" height="1.44" stroke-width="0.72"/>
     </g>
    </g>
   </g>
  </g>
  <g partID="854110301">
   <g transform="translate(167.292,30.6588)">
    <g transform="matrix(-1,0,0,-1,0,0)">
     <g id="silkscreen">
      <circle stroke="black" cx="9.9" fill="none" r="4.104" cy="4.5" stroke-width="0.72"/>
      <rect stroke="black" width="1.44" x="5.58" y="3.78" fill="black" height="1.44" stroke-width="0.72"/>
     </g>
    </g>
   </g>
  </g>
  <g partID="854112791">
   <g transform="translate(82.3206,33.3998)">
    <g transform="matrix(-1,0,0,-1,0,0)">
     <g id="silkscreen">
      <line stroke="black" y2="3.11811" class="other" x1="24.8031" y1="3.11811" stroke-linecap="round" x2="12.0472" stroke-width="0.576"/>
      <line stroke="black" y2="18.1417" class="other" x1="0.708661" y1="5.95276" stroke-linecap="round" x2="0.708661" stroke-width="0.576"/>
      <line stroke="black" y2="33.1654" class="other" x1="0.708661" y1="23.4992" stroke-linecap="round" x2="0.708661" stroke-width="0.576"/>
      <line stroke="black" y2="3.11811" class="other" x1="24.8031" y1="33.1654" stroke-linecap="round" x2="24.8031" stroke-width="0.576"/>
      <line stroke="black" y2="33.1654" class="other" x1="0.708661" y1="33.1654" stroke-linecap="round" x2="24.8031" stroke-width="0.576"/>
      <line stroke="black" y2="33.1654" class="other" x1="24.8031" y1="33.1654" stroke-linecap="round" x2="24.6614" stroke-width="0.576"/>
     </g>
    </g>
   </g>
  </g>
  <g partID="854121491">
   <g transform="translate(138.571,42.2921)">
    <g id="silkscreen">
     <line stroke="black" y2="44.6797" x1="1.44" y1="1.44" id="vertical-left" x2="1.44" stroke-width="0.72"/>
     <line stroke="black" y2="44.6797" x1="1.44" y1="44.6797" id="bottom" x2="33.12" stroke-width="0.72"/>
     <line stroke="black" y2="1.44" x1="33.12" y1="44.6797" id="vertical-right" x2="33.12" stroke-width="0.72"/>
     <line stroke="black" y2="1.44" x1="33.12" y1="1.44" id="top" x2="1.44" stroke-width="0.72"/>
     <line stroke="black" y2="1.44" x1="27.36" y1="44.6797" id="mid-vertical" x2="27.36" stroke-width="0.36"/>
    </g>
   </g>
  </g>
  <g partID="12679621">
   <g transform="translate(57.5713,71.2452)">
    <g transform="matrix(-1,0,0,-1,0,0)">
     <g id="silkscreen">
      <circle stroke="black" cx="7.56" fill="none" r="7.2" id="circle7" cy="7.56" stroke-width="0.72"/>
      <path stroke="black" d="m2.88,3.6,2.16,0" fill="none" stroke-linecap="round" stroke-width="0.792"/>
      <path stroke="black" d="m2.88,11.52,2.16,0" fill="none" stroke-linecap="round" stroke-width="0.792"/>
     </g>
    </g>
   </g>
  </g>
  <g partID="854167041">
   <g transform="translate(41.6593,28.6932)">
    <g id="silkscreen">
     <line stroke="black" y2="14.684" x1="6.93559" y1="6.34006" stroke-linecap="round" x2="18.4084" stroke-width="1.512"/>
    </g>
   </g>
  </g>
  <g partID="854313001">
   <g transform="translate(24.3793,9.97319)">
    <g id="silkscreen">
     <line stroke="black" y2="26.532" x1="4.752" y1="7.452" stroke-linecap="round" x2="4.752" stroke-width="1.512"/>
    </g>
   </g>
  </g>
  <g partID="854313631">
   <g transform="translate(39.4273,23.5452)">
    <g transform="matrix(0,1,-1,0,0,0)">
     <g id="silkscreen">
      <line stroke="black" y2="3.096" y1="3.096" x1="5.4" x2="10.584" stroke-width="0.72"/>
      <line stroke="black" y2="3.096" y1="3.096" x1="24.984" x2="28.8" stroke-width="0.72"/>
      <line stroke="black" y2="0.72" y1="0.72" x1="10.584" x2="24.984" stroke-width="0.72"/>
      <line stroke="black" y2="5.472" y1="0.72" x1="24.984" x2="24.984" stroke-width="0.72"/>
      <line stroke="black" y2="5.472" y1="5.472" x1="24.984" x2="10.584" stroke-width="0.72"/>
      <line stroke="black" y2="0.72" y1="5.472" x1="10.584" x2="10.584" stroke-width="0.72"/>
     </g>
    </g>
   </g>
  </g>
  <g partID="854321191">
   <g transform="translate(153.858,17.7524)">
    <g transform="matrix(0,-1,1,0,0,0)">
     <g id="silkscreen">
      <path stroke="black" stroke-linejoin="round" d="M6.0272,11.6048c-0.196,-0.1136,-0.388,-0.24,-0.5736,-0.3808c-2.4368,-1.84,-2.92,-5.3088,-1.0792,-7.7456C4.688,3.064,5.0576,2.696,5.4728,2.384" fill="none" stroke-linecap="round" id="path2820_2_" stroke-width="0.36864"/>
      <path stroke="black" stroke-linejoin="round" d="M12.12,2.3992c2.436,1.8392,2.9192,5.308,1.08,7.7456c-0.4424,0.5856,-0.9792,1.0584,-1.5728,1.4136" fill="none" stroke-linecap="round" id="path2820_1_" stroke-width="0.36864"/>
      <path stroke="black" d="M6.3872,2.3864L5.4696,2.3864" fill="none" stroke-linecap="round" id="path3707_2_" stroke-width="0.36864"/>
      <path stroke="black" d="M12.1048,2.3864l-0.9168,0" fill="none" stroke-linecap="round" id="path3707_1_" stroke-width="0.36864"/>
     </g>
    </g>
   </g>
  </g>
  <g id="partLabel" partID="854313630">
   <g transform="translate(21.3813,44.743)">
    <g stroke="none" font-style="normal" font-weight="normal" fill="#000000" id="silkscreenLabel" fill-opacity="1" font-size="5" font-family="'OCRA'">
     <text x="0" y="3.75">R2</text>
    </g>
   </g>
  </g>
  <g id="partLabel" partID="854321190">
   <g transform="translate(148.816,8.71257)">
    <g stroke="none" font-style="normal" font-weight="normal" fill="#000000" id="silkscreenLabel" fill-opacity="1" font-size="5" font-family="'OCRA'">
     <text x="0" y="3.75">L1</text>
    </g>
   </g>
  </g>
  <g id="partLabel" partID="854272300">
   <g transform="translate(42.7658,15.1312)">
    <g stroke="none" font-style="normal" font-weight="normal" fill="#000000" id="silkscreenLabel" fill-opacity="1" font-size="5" font-family="'OCRA'">
     <text x="0" y="3.75">J4</text>
    </g>
   </g>
  </g>
  <g id="partLabel" partID="854272540">
   <g transform="translate(75.6142,91.7526)">
    <g stroke="none" font-style="normal" font-weight="normal" fill="#000000" id="silkscreenLabel" fill-opacity="1" font-size="5" font-family="'OCRA'">
     <text x="0" y="3.75">S1</text>
    </g>
   </g>
  </g>
  <g id="partLabel" partID="854271610">
   <g transform="translate(26.0268,96.9153)">
    <g stroke="none" font-style="normal" font-weight="normal" fill="#000000" id="silkscreenLabel" fill-opacity="1" font-size="5" font-family="'OCRA'">
     <text x="0" y="3.75">J3</text>
    </g>
   </g>
  </g>
  <g id="partLabel" partID="854279880">
   <g transform="translate(7.11042,53.6961)">
    <g stroke="none" font-style="normal" font-weight="normal" fill="#000000" id="silkscreenLabel" fill-opacity="1" font-size="5" font-family="'OCRA'">
     <text x="0" y="3.75">ESP8266</text>
    </g>
   </g>
  </g>
  <g id="partLabel" partID="854300910">
   <g transform="translate(34.3807,76.0948)">
    <g stroke="none" font-style="normal" font-weight="normal" fill="#000000" id="silkscreenLabel" fill-opacity="1" font-size="5" font-family="'OCRA'">
     <text x="0" y="3.75">R1</text>
    </g>
   </g>
  </g>
  <g id="partLabel" partID="854132900">
   <g transform="translate(69.1398,48.5939)">
    <g stroke="none" font-style="normal" font-weight="normal" fill="#000000" id="silkscreenLabel" fill-opacity="1" font-size="5" font-family="'OCRA'">
     <text x="0" y="3.75">R3</text>
    </g>
   </g>
  </g>
  <g id="partLabel" partID="12679620">
   <g transform="translate(31.2033,55.9532)">
    <g transform="matrix(1,0,0,1,0,0)">
     <g stroke="none" font-style="normal" font-weight="normal" fill="#000000" id="silkscreenLabel" fill-opacity="1" font-size="5" font-family="'OCRA'">
      <text x="0" y="3.75">C1</text>
     </g>
    </g>
   </g>
  </g>
  <g id="partLabel" partID="854106260">
   <g transform="translate(98.7146,23.0198)">
    <g stroke="none" font-style="normal" font-weight="normal" fill="#000000" id="silkscreenLabel" fill-opacity="1" font-size="5" font-family="'OCRA'">
     <text x="0" y="3.75">D1</text>
    </g>
   </g>
  </g>
  <g id="partLabel" partID="854105480">
   <g transform="translate(109.563,74.2305)">
    <g stroke="none" font-style="normal" font-weight="normal" fill="#000000" id="silkscreenLabel" fill-opacity="1" font-size="5" font-family="'OCRA'">
     <text x="0" y="3.75">K1</text>
    </g>
   </g>
  </g>
  <g id="partLabel" partID="854181420">
   <g transform="translate(96.9759,5.59495)">
    <g stroke="none" font-style="normal" font-weight="normal" fill="#000000" id="silkscreenLabel" fill-opacity="1" font-size="5" font-family="'OCRA'">
     <text x="0" y="3.75">D2</text>
    </g>
   </g>
  </g>
  <g id="partLabel" partID="854106690">
   <g transform="translate(138.201,18.8848)">
    <g stroke="none" font-style="normal" font-weight="normal" fill="#000000" id="silkscreenLabel" fill-opacity="1" font-size="5" font-family="'OCRA'">
     <text x="0" y="3.75">Q1</text>
    </g>
   </g>
  </g>
  <g id="partLabel" partID="854126210">
   <g transform="translate(125.325,2.24387)">
    <g stroke="none" font-style="normal" font-weight="normal" fill="#000000" id="silkscreenLabel" fill-opacity="1" font-size="5" font-family="'OCRA'">
     <text x="0" y="3.75">R4</text>
    </g>
   </g>
  </g>
  <g id="partLabel" partID="854183770">
   <g transform="translate(129.611,11.3521)">
    <g stroke="none" font-style="normal" font-weight="normal" fill="#000000" id="silkscreenLabel" fill-opacity="1" font-size="5" font-family="'OCRA'">
     <text x="0" y="3.75">R5</text>
    </g>
   </g>
  </g>
  <g id="partLabel" partID="854112790">
   <g transform="translate(61.4736,8.6028)">
    <g stroke="none" font-style="normal" font-weight="normal" fill="#000000" id="silkscreenLabel" fill-opacity="1" font-size="5" font-family="'OCRA'">
     <text x="0" y="3.75">J2</text>
    </g>
   </g>
  </g>
  <g id="partLabel" partID="854110300">
   <g transform="translate(160.294,30.3571)">
    <g stroke="none" font-style="normal" font-weight="normal" fill="#000000" id="silkscreenLabel" fill-opacity="1" font-size="5" font-family="'OCRA'">
     <text x="0" y="3.75">R6</text>
    </g>
   </g>
  </g>
  <g id="partLabel" partID="854121490">
   <g transform="translate(144.841,69.8449)">
    <g stroke="none" font-style="normal" font-weight="normal" fill="#000000" id="silkscreenLabel" fill-opacity="1" font-size="5" font-family="'OCRA'">
     <text x="0" y="3.75">J1</text>
    </g>
   </g>
  </g>
  <g partID="854300912">
   <g transform="translate(19.2313,76.4652)">
    <g id="copper1">
     <!--  <rect width="55" x="10" y="35" fill="none" height="55" stroke="rgb(255, 191, 0)" stroke-width="20" /> -->
     <circle stroke="white" cx="2.7" fill="white" r="1.98" id="connector0pin" cy="4.5" stroke-width="2.16"/>
     <circle stroke="white" cx="9.9" fill="white" r="1.98" id="connector1pin" cy="4.5" stroke-width="2.16"/>
    </g>
   </g>
  </g>
  <g partID="854272302">
   <g transform="translate(41.3713,21.2052)">
    <g id="copper1">
     <g id="copper0">
      <circle stroke="white" cx="5.04" fill="white" r="2.088" id="connector0pin" cy="5.04" stroke-width="2.16"/>
      <circle stroke="white" cx="5.04" fill="white" r="2.088" id="connector1pin" cy="12.24" stroke-width="2.16"/>
      <circle stroke="white" cx="5.04" fill="white" r="2.088" id="connector2pin" cy="19.44" stroke-width="2.16"/>
      <circle stroke="white" cx="5.04" fill="white" r="2.088" id="connector3pin" cy="26.64" stroke-width="2.16"/>
     </g>
    </g>
   </g>
  </g>
  <g partID="854271612">
   <g transform="translate(32.7731,84.5332)">
    <g transform="matrix(0,1,-1,0,0,0)">
     <g id="copper1">
      <g id="copper0">
       <circle stroke="white" cx="5.04" fill="white" r="2.088" id="connector0pin" cy="5.04" stroke-width="2.16"/>
       <circle stroke="white" cx="5.04" fill="white" r="2.088" id="connector1pin" cy="12.24" stroke-width="2.16"/>
       <circle stroke="white" cx="5.04" fill="white" r="2.088" id="connector2pin" cy="19.44" stroke-width="2.16"/>
       <circle stroke="white" cx="5.04" fill="white" r="2.088" id="connector3pin" cy="26.64" stroke-width="2.16"/>
      </g>
     </g>
    </g>
   </g>
  </g>
  <g partID="854279882">
   <g transform="translate(6.8113,75.9252)">
    <g transform="matrix(0,-1,1,0,0,0)">
     <g id="copper1">
      <g id="copper0">
       <circle stroke="white" cx="5.04" fill="white" r="2.088" id="connector0pin" cy="5.04" stroke-width="2.16"/>
       <circle stroke="white" cx="5.04" fill="white" r="2.088" id="connector1pin" cy="12.24" stroke-width="2.16"/>
       <circle stroke="white" cx="5.04" fill="white" r="2.088" id="connector2pin" cy="19.44" stroke-width="2.16"/>
       <circle stroke="white" cx="5.04" fill="white" r="2.088" id="connector3pin" cy="26.64" stroke-width="2.16"/>
       <circle stroke="white" cx="5.04" fill="white" r="2.088" id="connector0pin" cy="5.04" stroke-width="2.16"/>
       <circle stroke="white" cx="5.04" fill="white" r="2.088" id="connector1pin" cy="12.24" stroke-width="2.16"/>
       <circle stroke="white" cx="5.04" fill="white" r="2.088" id="connector2pin" cy="19.44" stroke-width="2.16"/>
       <circle stroke="white" cx="5.04" fill="white" r="2.088" id="connector3pin" cy="26.64" stroke-width="2.16"/>
       <circle stroke="white" cx="12.24" fill="white" r="2.088" id="connector4pin" cy="26.64" stroke-width="2.16"/>
       <circle stroke="white" cx="12.24" fill="white" r="2.088" id="connector5pin" cy="19.44" stroke-width="2.16"/>
       <circle stroke="white" cx="12.24" fill="white" r="2.088" id="connector6pin" cy="12.24" stroke-width="2.16"/>
       <circle stroke="white" cx="12.24" fill="white" r="2.088" id="connector7pin" cy="5.04" stroke-width="2.16"/>
      </g>
     </g>
    </g>
   </g>
  </g>
  <g partID="854272542">
   <g transform="translate(84.5375,89.5713)">
    <g transform="matrix(-1,0,0,-1,0,0)">
     <g id="copper1">
      <g id="copper0">
       <circle stroke="white" cx="20.8462" fill="white" r="1.98" id="connector0pad" cy="15.6024" stroke-width="2.16"/>
       <circle stroke="white" cx="2.42064" fill="white" r="1.98" id="connector1pad" cy="15.6024" stroke-width="2.16"/>
       <circle stroke="white" cx="20.8462" fill="white" r="1.98" id="connector2pad" cy="2.84616" stroke-width="2.16"/>
       <circle stroke="white" cx="2.42064" fill="white" r="1.98" id="connector3pad" cy="2.84616" stroke-width="2.16"/>
      </g>
     </g>
    </g>
   </g>
  </g>
  <g partID="854105482">
   <g transform="translate(136.037,36.2968)">
    <g transform="matrix(0,1,-1,0,0,0)">
     <g transform="matrix(1, 0, 0, 1, 0, -795.118)">
      <g id="copper1">
       <g>
        <g transform="matrix(1, 0, 0, 1, 0, 795.118)">
         <g id="0.3.1.0">
          <path stroke="white" d="m10.4882,23.3858a3.25984,3.25984,0,1,1,-6.51969,0,3.25984,3.25984,0,1,1,6.51969,0z" fill="white" style="opacity:0.98000004;stroke-miterlimit:4;stroke-dasharray:none" stroke-opacity="1" id="connector2pin" stroke-width="3.55465"/>
         </g>
        </g>
        <g transform="matrix(1, 0, 0, 1, 5.81102, 812.126)">
         <g id="0.3.1.1">
          <path stroke="white" d="m10.4882,23.3858a3.25984,3.25984,0,1,1,-6.51969,0,3.25984,3.25984,0,1,1,6.51969,0z" fill="white" style="opacity:0.98000004;stroke-miterlimit:4;stroke-dasharray:none" stroke-opacity="1" id="path3782-7" stroke-width="3.55465"/>
         </g>
        </g>
        <g transform="matrix(1, 0, 0, 1, 40.252, 812.126)">
         <g id="0.3.1.2">
          <path stroke="white" d="m10.4882,23.3858a3.25984,3.25984,0,1,1,-6.51969,0,3.25984,3.25984,0,1,1,6.51969,0z" fill="white" style="opacity:0.98000004;stroke-miterlimit:4;stroke-dasharray:none" stroke-opacity="1" id="path3782-7-5" stroke-width="3.55465"/>
         </g>
        </g>
        <g transform="matrix(1, 0, 0, 1, 5.81102, 812.126)">
         <g id="0.3.1.3">
          <path stroke="white" d="m10.4882,23.3858a3.25984,3.25984,0,1,1,-6.51969,0,3.25984,3.25984,0,1,1,6.51969,0z" fill="white" style="opacity:0.98000004;stroke-miterlimit:4;stroke-dasharray:none" stroke-opacity="1" id="connector1pin" stroke-width="3.55465"/>
         </g>
        </g>
        <g transform="matrix(1, 0, 0, 1, 40.252, 812.126)">
         <g id="0.3.1.4">
          <path stroke="white" d="m10.4882,23.3858a3.25984,3.25984,0,1,1,-6.51969,0,3.25984,3.25984,0,1,1,6.51969,0z" fill="white" style="opacity:0.98000004;stroke-miterlimit:4;stroke-dasharray:none" stroke-opacity="1" id="connector0pin" stroke-width="3.55465"/>
         </g>
        </g>
        <g transform="matrix(1, 0, 0, -1, 5.81102, 824.882)">
         <g id="0.3.1.5">
          <path stroke="white" d="m10.4882,23.3858a3.25984,3.25984,0,1,1,-6.51969,0,3.25984,3.25984,0,1,1,6.51969,0z" fill="white" style="opacity:0.98000004;stroke-miterlimit:4;stroke-dasharray:none" stroke-opacity="1" id="connector4pin" stroke-width="3.55465"/>
         </g>
        </g>
        <g transform="matrix(1, 0, 0, -1, 40.252, 824.882)">
         <g id="0.3.1.6">
          <path stroke="white" d="m10.4882,23.3858a3.25984,3.25984,0,1,1,-6.51969,0,3.25984,3.25984,0,1,1,6.51969,0z" fill="white" style="opacity:0.98000004;stroke-miterlimit:4;stroke-dasharray:none" stroke-opacity="1" id="connector5pin" stroke-width="3.55465"/>
         </g>
        </g>
       </g>
      </g>
     </g>
    </g>
   </g>
  </g>
  <g partID="854106262">
   <g transform="translate(118.339,28.7652)">
    <g transform="matrix(-1,0,0,-1,0,0)">
     <g id="copper1">
      <circle stroke="white" connectorname="A" cx="2.808" fill="white" r="2.11266" id="connector0pad" cy="3.96" stroke-width="2.11068"/>
      <circle stroke="white" connectorname="C" cx="31.608" fill="white" r="2.11266" id="connector1pad" cy="3.96" stroke-width="2.11068"/>
      <g id="copper0">
       <circle stroke="white" connectorname="A" cx="2.808" fill="white" r="2.11266" id="connector0pad" cy="3.96" stroke-width="2.11068"/>
       <circle stroke="white" connectorname="C" cx="31.608" fill="white" r="2.11266" id="connector1pad" cy="3.96" stroke-width="2.11068"/>
      </g>
     </g>
    </g>
   </g>
  </g>
  <g partID="854181422">
   <g transform="translate(83.9233,3.56519)">
    <g id="copper1">
     <circle stroke="white" connectorname="A" cx="2.808" fill="white" r="2.11266" id="connector0pad" cy="3.96" stroke-width="2.11068"/>
     <circle stroke="white" connectorname="C" cx="31.608" fill="white" r="2.11266" id="connector1pad" cy="3.96" stroke-width="2.11068"/>
     <g id="copper0">
      <circle stroke="white" connectorname="A" cx="2.808" fill="white" r="2.11266" id="connector0pad" cy="3.96" stroke-width="2.11068"/>
      <circle stroke="white" connectorname="C" cx="31.608" fill="white" r="2.11266" id="connector1pad" cy="3.96" stroke-width="2.11068"/>
     </g>
    </g>
   </g>
  </g>
  <g partID="854106692">
   <g transform="translate(130.651,12.2772)">
    <g id="copper1">
     <g id="copper0">
      <circle stroke="white" cx="3.6" fill="white" r="1.98" id="connector0pin" cy="8.208" stroke-width="2.16"/>
      <circle stroke="white" cx="10.8" fill="white" r="1.98" id="connector1pin" cy="8.208" stroke-width="2.16"/>
      <circle stroke="white" cx="18" fill="white" r="1.98" id="connector2pin" cy="8.208" stroke-width="2.16"/>
     </g>
    </g>
   </g>
  </g>
  <g partID="854183772">
   <g transform="translate(118.231,8.78519)">
    <g transform="matrix(1,3.88578e-16,-3.88578e-16,1,0,0)">
     <g id="copper1">
      <!-- <rect width="55" x="35" y="35" fill="none" height="55" stroke="rgb(255, 191, 0)" stroke-width="20" /> -->
      <circle stroke="white" cx="4.5" fill="white" r="1.98" id="connector0pin" cy="4.5" stroke-width="2.16"/>
      <circle stroke="white" cx="11.7" fill="white" r="1.98" id="connector1pin" cy="4.5" stroke-width="2.16"/>
     </g>
    </g>
   </g>
  </g>
  <g partID="854132902">
   <g transform="translate(66.7513,49.1052)">
    <g transform="matrix(-2.77556e-16,1,-1,-2.77556e-16,0,0)">
     <g id="copper1">
      <!-- <rect width="55" x="35" y="35" fill="none" height="55" stroke="rgb(255, 191, 0)" stroke-width="20" /> -->
      <circle stroke="white" cx="4.5" fill="white" r="1.98" id="connector0pin" cy="4.5" stroke-width="2.16"/>
      <circle stroke="white" cx="11.7" fill="white" r="1.98" id="connector1pin" cy="4.5" stroke-width="2.16"/>
     </g>
    </g>
   </g>
  </g>
  <g partID="854126212">
   <g transform="translate(148.471,10.5852)">
    <g transform="matrix(-1,0,0,-1,0,0)">
     <g id="copper1">
      <!--  <rect width="55" x="10" y="35" fill="none" height="55" stroke="rgb(255, 191, 0)" stroke-width="20" /> -->
      <circle stroke="white" cx="2.7" fill="white" r="1.98" id="connector0pin" cy="4.5" stroke-width="2.16"/>
      <circle stroke="white" cx="9.9" fill="white" r="1.98" id="connector1pin" cy="4.5" stroke-width="2.16"/>
     </g>
    </g>
   </g>
  </g>
  <g partID="854110302">
   <g transform="translate(167.292,30.6588)">
    <g transform="matrix(-1,0,0,-1,0,0)">
     <g id="copper1">
      <!--  <rect width="55" x="10" y="35" fill="none" height="55" stroke="rgb(255, 191, 0)" stroke-width="20" /> -->
      <circle stroke="white" cx="2.7" fill="white" r="1.98" id="connector0pin" cy="4.5" stroke-width="2.16"/>
      <circle stroke="white" cx="9.9" fill="white" r="1.98" id="connector1pin" cy="4.5" stroke-width="2.16"/>
     </g>
    </g>
   </g>
  </g>
  <g partID="854112792">
   <g transform="translate(82.3206,33.3998)">
    <g transform="matrix(-1,0,0,-1,0,0)">
     <g id="copper1">
      <circle stroke="white" connectorname="PWR" cx="5.66929" fill="white" r="2.12598" id="connector2pad" cy="2.83465" stroke-width="2.13732"/>
      <path stroke="white" d="m8.50393,0a2.83464,2.83465,0,0,1,2.83464,2.83465l0,0a2.83464,2.83465,0,0,1,-2.83464,2.83465l-5.66929,0a2.83464,2.83465,0,0,1,-2.83464,-2.83465l0,0a2.83464,2.83465,0,0,1,2.83464,-2.83465l5.66929,0zM4.25197,2.83465a1.41732,1.41732,0,1,0,2.83464,0,1.41732,1.41732,0,1,0,-2.83464,0z" fill="white" stroke-width="0.72"/>
      <circle stroke="white" connectorname="GND@1" cx="5.66929" fill="white" r="2.12598" id="connector0pad" cy="20.6929" stroke-width="2.13732"/>
      <path stroke="white" d="m8.50393,17.8583a2.83464,2.83465,0,0,1,2.83464,2.83465l0,0a2.83464,2.83465,0,0,1,-2.83464,2.83465l-5.66929,0a2.83464,2.83465,0,0,1,-2.83464,-2.83465l0,0a2.83464,2.83465,0,0,1,2.83464,-2.83465l5.66929,0zM4.25197,20.6929a1.41732,1.41732,0,1,0,2.83464,0,1.41732,1.41732,0,1,0,-2.83464,0z" fill="white" stroke-width="0.72"/>
      <circle stroke="white" connectorname="GND@2" cx="19.8425" fill="white" r="2.12598" id="connector1pad" cy="11.3386" stroke-width="2.13732"/>
      <path stroke="white" d="m19.8425,5.66929a2.83464,2.83465,0,0,1,2.83464,2.83465l0,5.66929a2.83464,2.83465,0,0,1,-2.83464,2.83465l0,0a2.83464,2.83465,0,0,1,-2.83464,-2.83465l0,-5.66929a2.83464,2.83465,0,0,1,2.83464,-2.83465l0,0zM18.4252,11.3386a1.41732,1.41732,0,1,0,2.83464,0,1.41732,1.41732,0,1,0,-2.83464,0z" fill="white" stroke-width="0.72"/>
      <g id="copper0">
       <circle stroke="white" connectorname="PWR" cx="5.66929" fill="white" r="2.12598" id="connector2pad" cy="2.83465" stroke-width="2.13732"/>
       <path stroke="white" d="m8.50393,0a2.83464,2.83465,0,0,1,2.83464,2.83465l0,0a2.83464,2.83465,0,0,1,-2.83464,2.83465l-5.66929,0a2.83464,2.83465,0,0,1,-2.83464,-2.83465l0,0a2.83464,2.83465,0,0,1,2.83464,-2.83465l5.66929,0zM4.25197,2.83465a1.41732,1.41732,0,1,0,2.83464,0,1.41732,1.41732,0,1,0,-2.83464,0z" fill="white" stroke-width="0.72"/>
       <circle stroke="white" connectorname="GND@1" cx="5.66929" fill="white" r="2.12598" id="connector0pad" cy="20.6929" stroke-width="2.13732"/>
       <path stroke="white" d="m8.50393,17.8583a2.83464,2.83465,0,0,1,2.83464,2.83465l0,0a2.83464,2.83465,0,0,1,-2.83464,2.83465l-5.66929,0a2.83464,2.83465,0,0,1,-2.83464,-2.83465l0,0a2.83464,2.83465,0,0,1,2.83464,-2.83465l5.66929,0zM4.25197,20.6929a1.41732,1.41732,0,1,0,2.83464,0,1.41732,1.41732,0,1,0,-2.83464,0z" fill="white" stroke-width="0.72"/>
       <circle stroke="white" connectorname="GND@2" cx="19.8425" fill="white" r="2.12598" id="connector1pad" cy="11.3386" stroke-width="2.13732"/>
       <path stroke="white" d="m19.8425,5.66929a2.83464,2.83465,0,0,1,2.83464,2.83465l0,5.66929a2.83464,2.83465,0,0,1,-2.83464,2.83465l0,0a2.83464,2.83465,0,0,1,-2.83464,-2.83465l0,-5.66929a2.83464,2.83465,0,0,1,2.83464,-2.83465l0,0zM18.4252,11.3386a1.41732,1.41732,0,1,0,2.83464,0,1.41732,1.41732,0,1,0,-2.83464,0z" fill="white" stroke-width="0.72"/>
      </g>
     </g>
    </g>
   </g>
  </g>
  <g partID="854121492">
   <g transform="translate(138.571,42.2921)">
    <g id="copper1">
     <g id="copper0">
      <rect stroke="white" width="7.10929" x="10.8454" y="5.33197" fill="white" id="square" height="7.10929" stroke-width="2.16"/>
      <circle stroke="white" cx="14.4" fill="white" r="3.55465" id="connector0pin" cy="8.8866" stroke-width="2.16"/>
      <circle stroke="white" cx="14.4" fill="white" r="3.55465" id="connector1pin" cy="23.0599" stroke-width="2.16"/>
      <circle stroke="white" cx="14.4" fill="white" r="3.55465" id="connector2pin" cy="37.2331" stroke-width="2.16"/>
     </g>
    </g>
   </g>
  </g>
  <g partID="12679622">
   <g transform="translate(57.5713,71.2452)">
    <g transform="matrix(-1,0,0,-1,0,0)">
     <g id="copper1">
      <g id="copper0">
       <rect stroke="white" width="3.96" x="1.98" y="5.58" fill="white" id="rect11" height="3.96" stroke-width="2.16"/>
       <circle stroke="white" cx="3.96" fill="white" r="1.98" id="connector0pin" cy="7.56" stroke-width="2.16"/>
       <circle stroke="white" cx="11.16" fill="white" r="1.98" id="connector1pin" cy="7.56" stroke-width="2.16"/>
      </g>
     </g>
    </g>
   </g>
  </g>
  <g partID="854167043">
   <g transform="translate(41.6593,28.6932)">
    <g id="copper1">
     <circle stroke="white" cx="4.752" fill="white" r="1.98" id="connector0pad" cy="4.752" stroke-width="2.16"/>
     <circle stroke="white" cx="20.592" fill="white" r="1.98" id="connector1pad" cy="16.272" stroke-width="2.16"/>
    </g>
   </g>
  </g>
  <g partID="854313003">
   <g transform="translate(24.3793,9.97319)">
    <g id="copper1">
     <circle stroke="white" cx="4.752" fill="white" r="1.98" id="connector0pad" cy="4.752" stroke-width="2.16"/>
     <circle stroke="white" cx="4.752" fill="white" r="1.98" id="connector1pad" cy="29.232" stroke-width="2.16"/>
    </g>
   </g>
  </g>
  <g partID="854313632">
   <g transform="translate(39.4273,23.5452)">
    <g transform="matrix(0,1,-1,0,0,0)">
     <g id="copper1">
      <!-- <rect width="55" x="10" y="15.5" fill="none" height="55" stroke="rgb(255, 191, 0)" stroke-width="20" />  -->
      <circle stroke="white" cx="2.7" fill="white" r="1.98" id="connector0pin" cy="3.096" stroke-width="2.16"/>
      <circle stroke="white" cx="31.5" fill="white" r="1.98" id="connector1pin" cy="3.096" stroke-width="2.16"/>
     </g>
    </g>
   </g>
  </g>
  <g partID="854321192">
   <g transform="translate(153.858,17.7524)">
    <g transform="matrix(0,-1,1,0,0,0)">
     <g id="copper1">
      <circle stroke="white" cx="8.7872" fill="white" r="1.7008" id="connector1pad" stroke-width="1.85384" cy="10.6336"/>
      <rect stroke="white" x="7.0864" y="8.9328" width="3.4016" fill="white" stroke-width="1.85384" height="3.4016"/>
      <circle stroke="white" cx="8.7872" fill="white" r="1.7008" id="connector0pad" stroke-width="1.85384" cy="3.5464"/>
     </g>
    </g>
   </g>
  </g>
 </g>
</svg>
