<?xml version='1.0' encoding='UTF-8' standalone='no'?>
<!-- Created with Fritzing (http://www.fritzing.org/) -->
<svg xmlns="http://www.w3.org/2000/svg" version="1.2" xmlns:svg="http://www.w3.org/2000/svg" x="0in" y="0in" width="2.3622in"  viewBox="0 0 170.079 99.2126" baseProfile="tiny" height="1.37795in">
 <g transform="matrix(-1, 0, 0, 1, 170.079, 0)">
  <g partID="12452970">
   <g  id="board">
    <rect stroke="black" width="169.503" x="0.288" y="0.288"  fill="none" id="boardoutline" fill-opacity="0.5" stroke-width="0.5" height="98.6366"/>
   </g>
  </g>
  <g partID="854300910">
   <g transform="translate(19.2313,76.4652)">
    <g  id="copper0">
     <g  id="copper1">
      <!--  <rect width="55" x="10" y="35" fill="none" height="55" stroke="rgb(255, 191, 0)" stroke-width="20" /> -->
      <g stroke="black" cx="2.7"  fill="none" r="1.98" id="0" cy="4.5" stroke-width="1.44"/>
      <g stroke="black" cx="9.9"  fill="none" r="1.98" id="1" cy="4.5" stroke-width="1.44"/>
     </g>
    </g>
   </g>
  </g>
  <g partID="854272300">
   <g transform="translate(41.3713,21.2052)">
    <g  id="copper0">
     <g stroke="black" cx="5.04"  fill="none" r="2.088" id="2" cy="5.04" stroke-width="1.44"/>
     <g stroke="black" cx="5.04"  fill="none" r="2.088" id="3" cy="12.24" stroke-width="1.44"/>
     <g stroke="black" cx="5.04"  fill="none" r="2.088" id="4" cy="19.44" stroke-width="1.44"/>
     <g stroke="black" cx="5.04"  fill="none" r="2.088" id="5" cy="26.64" stroke-width="1.44"/>
    </g>
   </g>
  </g>
  <g partID="854271610">
   <g transform="translate(32.7731,84.5332)">
    <g transform="matrix(0,1,-1,0,0,0)">
     <g  id="copper0">
      <g stroke="black" cx="5.04"  fill="none" r="2.088" id="6" cy="5.04" stroke-width="1.44"/>
      <g stroke="black" cx="5.04"  fill="none" r="2.088" id="7" cy="12.24" stroke-width="1.44"/>
      <g stroke="black" cx="5.04"  fill="none" r="2.088" id="8" cy="19.44" stroke-width="1.44"/>
      <g stroke="black" cx="5.04"  fill="none" r="2.088" id="9" cy="26.64" stroke-width="1.44"/>
     </g>
    </g>
   </g>
  </g>
  <g partID="854279880">
   <g transform="translate(6.8113,75.9252)">
    <g transform="matrix(0,-1,1,0,0,0)">
     <g  id="copper0">
      <g stroke="black" cx="5.04"  fill="none" r="2.088" id="10" cy="5.04" stroke-width="1.44"/>
      <g stroke="black" cx="5.04"  fill="none" r="2.088" id="11" cy="12.24" stroke-width="1.44"/>
      <g stroke="black" cx="5.04"  fill="none" r="2.088" id="12" cy="19.44" stroke-width="1.44"/>
      <g stroke="black" cx="5.04"  fill="none" r="2.088" id="13" cy="26.64" stroke-width="1.44"/>
      <g stroke="black" cx="5.04"  fill="none" r="2.088" id="14" cy="5.04" stroke-width="1.44"/>
      <g stroke="black" cx="5.04"  fill="none" r="2.088" id="15" cy="12.24" stroke-width="1.44"/>
      <g stroke="black" cx="5.04"  fill="none" r="2.088" id="16" cy="19.44" stroke-width="1.44"/>
      <g stroke="black" cx="5.04"  fill="none" r="2.088" id="17" cy="26.64" stroke-width="1.44"/>
      <g stroke="black" cx="12.24"  fill="none" r="2.088" id="18" cy="26.64" stroke-width="1.44"/>
      <g stroke="black" cx="12.24"  fill="none" r="2.088" id="19" cy="19.44" stroke-width="1.44"/>
      <g stroke="black" cx="12.24"  fill="none" r="2.088" id="20" cy="12.24" stroke-width="1.44"/>
      <g stroke="black" cx="12.24"  fill="none" r="2.088" id="21" cy="5.04" stroke-width="1.44"/>
     </g>
    </g>
   </g>
  </g>
  <g partID="854272540">
   <g transform="translate(84.5375,89.5713)">
    <g transform="matrix(-1,0,0,-1,0,0)">
     <g  id="copper0">
      <g stroke="black" cx="20.8462"  fill="none" r="1.98" id="22" cy="15.6024" stroke-width="1.44"/>
      <g stroke="black" cx="2.42064"  fill="none" r="1.98" id="23" cy="15.6024" stroke-width="1.44"/>
      <g stroke="black" cx="20.8462"  fill="none" r="1.98" id="24" cy="2.84616" stroke-width="1.44"/>
      <g stroke="black" cx="2.42064"  fill="none" r="1.98" id="25" cy="2.84616" stroke-width="1.44"/>
     </g>
    </g>
   </g>
  </g>
  <g partID="854242580">
   <g transform="translate(34.3648,94.2133)">
    <g transform="matrix(0,-1,1,0,0,0)">
     <g id="copper0" flipped="1">
      <g transform="matrix(-1, 0, 0, 1, 19.152, 0)">
       <g>
        <g>
         <g>
          <rect stroke="none" connectorname="1" x="1.296" y="17.5187" width="3.456" fill="black" stroke-linecap="round" id="26" height="6.336" stroke-width="0"/>
          <rect stroke="none" connectorname="2" x="7.848" y="17.5187" width="3.456" fill="black" stroke-linecap="round" id="27" height="6.336" stroke-width="0"/>
          <rect stroke="none" connectorname="3" x="14.4" y="17.5187" width="3.456" fill="black" stroke-linecap="round" id="28" height="6.336" stroke-width="0"/>
          <rect stroke="none" connectorname="4" x="4.47364" y="0" width="10.2047" fill="black" stroke-linecap="round" id="29" height="6.23622" stroke-width="0"/>
          <g id="30"/>
         </g>
         <g id="31"/>
        </g>
       </g>
      </g>
     </g>
    </g>
   </g>
  </g>
  <g partID="854105480">
   <g transform="translate(136.037,36.2968)">
    <g transform="matrix(0,1,-1,0,0,0)">
     <g transform="matrix(1, 0, 0, 1, 0, -795.118)">
      <g id="copper0">
       <g>
        <g id="copper1">
         <g transform="matrix(1, 0, 0, 1, 0, 795.118)">
          <g id="0.3.1.0">
           <g stroke="black" d="m10.4882,23.3858a3.25984,3.25984,0,1,1,-6.51969,0,3.25984,3.25984,0,1,1,6.51969,0z" fill="none" style="opacity:0.98000004;stroke-miterlimit:4;stroke-dasharray:none" stroke-opacity="1" id="32" stroke-width="2.83465"/>
          </g>
         </g>
         <g transform="matrix(1, 0, 0, 1, 5.81102, 812.126)">
          <g id="0.3.1.1">
           <g stroke="black" d="m10.4882,23.3858a3.25984,3.25984,0,1,1,-6.51969,0,3.25984,3.25984,0,1,1,6.51969,0z" fill="none" style="opacity:0.98000004;stroke-miterlimit:4;stroke-dasharray:none" stroke-opacity="1" id="33" stroke-width="2.83465"/>
          </g>
         </g>
         <g transform="matrix(1, 0, 0, 1, 40.252, 812.126)">
          <g id="0.3.1.2">
           <g stroke="black" d="m10.4882,23.3858a3.25984,3.25984,0,1,1,-6.51969,0,3.25984,3.25984,0,1,1,6.51969,0z" fill="none" style="opacity:0.98000004;stroke-miterlimit:4;stroke-dasharray:none" stroke-opacity="1" id="34" stroke-width="2.83465"/>
          </g>
         </g>
         <g transform="matrix(1, 0, 0, 1, 5.81102, 812.126)">
          <g id="0.3.1.3">
           <g stroke="black" d="m10.4882,23.3858a3.25984,3.25984,0,1,1,-6.51969,0,3.25984,3.25984,0,1,1,6.51969,0z" fill="none" style="opacity:0.98000004;stroke-miterlimit:4;stroke-dasharray:none" stroke-opacity="1" id="35" stroke-width="2.83465"/>
          </g>
         </g>
         <g transform="matrix(1, 0, 0, 1, 40.252, 812.126)">
          <g id="0.3.1.4">
           <g stroke="black" d="m10.4882,23.3858a3.25984,3.25984,0,1,1,-6.51969,0,3.25984,3.25984,0,1,1,6.51969,0z" fill="none" style="opacity:0.98000004;stroke-miterlimit:4;stroke-dasharray:none" stroke-opacity="1" id="36" stroke-width="2.83465"/>
          </g>
         </g>
         <g transform="matrix(1, 0, 0, -1, 5.81102, 824.882)">
          <g id="0.3.1.5">
           <g stroke="black" d="m10.4882,23.3858a3.25984,3.25984,0,1,1,-6.51969,0,3.25984,3.25984,0,1,1,6.51969,0z" fill="none" style="opacity:0.98000004;stroke-miterlimit:4;stroke-dasharray:none" stroke-opacity="1" id="37" stroke-width="2.83465"/>
          </g>
         </g>
         <g transform="matrix(1, 0, 0, -1, 40.252, 824.882)">
          <g id="0.3.1.6">
           <g stroke="black" d="m10.4882,23.3858a3.25984,3.25984,0,1,1,-6.51969,0,3.25984,3.25984,0,1,1,6.51969,0z" fill="none" style="opacity:0.98000004;stroke-miterlimit:4;stroke-dasharray:none" stroke-opacity="1" id="38" stroke-width="2.83465"/>
          </g>
         </g>
        </g>
       </g>
      </g>
     </g>
    </g>
   </g>
  </g>
  <g partID="854106260">
   <g transform="translate(118.339,28.7652)">
    <g transform="matrix(-1,0,0,-1,0,0)">
     <g  id="copper0">
      <g stroke="black" connectorname="A" cx="2.808"  fill="none" r="2.11266" id="39" cy="3.96" stroke-width="1.39068"/>
      <g stroke="black" connectorname="C" cx="31.608"  fill="none" r="2.11266" id="40" cy="3.96" stroke-width="1.39068"/>
     </g>
    </g>
   </g>
  </g>
  <g partID="854181420">
   <g transform="translate(83.9233,3.56519)">
    <g  id="copper0">
     <g stroke="black" connectorname="A" cx="2.808"  fill="none" r="2.11266" id="41" cy="3.96" stroke-width="1.39068"/>
     <g stroke="black" connectorname="C" cx="31.608"  fill="none" r="2.11266" id="42" cy="3.96" stroke-width="1.39068"/>
    </g>
   </g>
  </g>
  <g partID="854106690">
   <g transform="translate(130.651,12.2772)">
    <g  id="copper0">
     <g stroke="black" cx="3.6"  fill="none" r="1.98" id="43" cy="8.208" stroke-width="1.44"/>
     <g stroke="black" cx="10.8"  fill="none" r="1.98" id="44" cy="8.208" stroke-width="1.44"/>
     <g stroke="black" cx="18"  fill="none" r="1.98" id="45" cy="8.208" stroke-width="1.44"/>
    </g>
   </g>
  </g>
  <g partID="854321190">
   <g transform="translate(153.858,17.7524)">
    <g transform="matrix(0,-1,1,0,0,0)">
     <g  id="copper0">
      <g  id="copper1">
       <g stroke="black" cx="8.7872"  fill="none" r="1.7008" id="46" stroke-width="1.13384" cy="10.6336"/>
       <g stroke="black" x="7.0864" y="8.9328" width="3.4016"  fill="none" id="47" stroke-width="1.13384" height="3.4016"/>
       <g stroke="black" cx="8.7872"  fill="none" r="1.7008" id="48" stroke-width="1.13384" cy="3.5464"/>
      </g>
     </g>
    </g>
   </g>
  </g>
  <g partID="854183770">
   <g transform="translate(118.231,8.78519)">
    <g transform="matrix(1,3.88578e-16,-3.88578e-16,1,0,0)">
     <g  id="copper0">
      <g  id="copper1">
       <!-- <rect width="55" x="35" y="35" fill="none" height="55" stroke="rgb(255, 191, 0)" stroke-width="20" /> -->
       <g stroke="black" cx="4.5"  fill="none" r="1.98" id="49" cy="4.5" stroke-width="1.44"/>
       <g stroke="black" cx="11.7"  fill="none" r="1.98" id="50" cy="4.5" stroke-width="1.44"/>
      </g>
     </g>
    </g>
   </g>
  </g>
  <g partID="854132900">
   <g transform="translate(66.7513,49.1052)">
    <g transform="matrix(-2.77556e-16,1,-1,-2.77556e-16,0,0)">
     <g  id="copper0">
      <g  id="copper1">
       <!-- <rect width="55" x="35" y="35" fill="none" height="55" stroke="rgb(255, 191, 0)" stroke-width="20" /> -->
       <g stroke="black" cx="4.5"  fill="none" r="1.98" id="51" cy="4.5" stroke-width="1.44"/>
       <g stroke="black" cx="11.7"  fill="none" r="1.98" id="52" cy="4.5" stroke-width="1.44"/>
      </g>
     </g>
    </g>
   </g>
  </g>
  <g partID="854126210">
   <g transform="translate(148.471,10.5852)">
    <g transform="matrix(-1,0,0,-1,0,0)">
     <g  id="copper0">
      <g  id="copper1">
       <!--  <rect width="55" x="10" y="35" fill="none" height="55" stroke="rgb(255, 191, 0)" stroke-width="20" /> -->
       <g stroke="black" cx="2.7"  fill="none" r="1.98" id="53" cy="4.5" stroke-width="1.44"/>
       <g stroke="black" cx="9.9"  fill="none" r="1.98" id="54" cy="4.5" stroke-width="1.44"/>
      </g>
     </g>
    </g>
   </g>
  </g>
  <g partID="854110300">
   <g transform="translate(167.292,30.6588)">
    <g transform="matrix(-1,0,0,-1,0,0)">
     <g  id="copper0">
      <g  id="copper1">
       <!--  <rect width="55" x="10" y="35" fill="none" height="55" stroke="rgb(255, 191, 0)" stroke-width="20" /> -->
       <g stroke="black" cx="2.7"  fill="none" r="1.98" id="55" cy="4.5" stroke-width="1.44"/>
       <g stroke="black" cx="9.9"  fill="none" r="1.98" id="56" cy="4.5" stroke-width="1.44"/>
      </g>
     </g>
    </g>
   </g>
  </g>
  <g partID="854112790">
   <g transform="translate(82.3206,33.3998)">
    <g transform="matrix(-1,0,0,-1,0,0)">
     <g  id="copper0">
      <g stroke="black" connectorname="PWR" cx="5.66929"  fill="none" r="2.12598" id="57" cy="2.83465" stroke-width="1.41732"/>
      <g stroke="none" d="m8.50393,0a2.83464,2.83465,0,0,1,2.83464,2.83465l0,0a2.83464,2.83465,0,0,1,-2.83464,2.83465l-5.66929,0a2.83464,2.83465,0,0,1,-2.83464,-2.83465l0,0a2.83464,2.83465,0,0,1,2.83464,-2.83465l5.66929,0zM4.25197,2.83465a1.41732,1.41732,0,1,0,2.83464,0,1.41732,1.41732,0,1,0,-2.83464,0z"  fill="black" id="58" stroke-width="0"/>
      <g stroke="black" connectorname="GND@1" cx="5.66929"  fill="none" r="2.12598" id="59" cy="20.6929" stroke-width="1.41732"/>
      <g stroke="none" d="m8.50393,17.8583a2.83464,2.83465,0,0,1,2.83464,2.83465l0,0a2.83464,2.83465,0,0,1,-2.83464,2.83465l-5.66929,0a2.83464,2.83465,0,0,1,-2.83464,-2.83465l0,0a2.83464,2.83465,0,0,1,2.83464,-2.83465l5.66929,0zM4.25197,20.6929a1.41732,1.41732,0,1,0,2.83464,0,1.41732,1.41732,0,1,0,-2.83464,0z"  fill="black" id="60" stroke-width="0"/>
      <g stroke="black" connectorname="GND@2" cx="19.8425"  fill="none" r="2.12598" id="61" cy="11.3386" stroke-width="1.41732"/>
      <g stroke="none" d="m19.8425,5.66929a2.83464,2.83465,0,0,1,2.83464,2.83465l0,5.66929a2.83464,2.83465,0,0,1,-2.83464,2.83465l0,0a2.83464,2.83465,0,0,1,-2.83464,-2.83465l0,-5.66929a2.83464,2.83465,0,0,1,2.83464,-2.83465l0,0zM18.4252,11.3386a1.41732,1.41732,0,1,0,2.83464,0,1.41732,1.41732,0,1,0,-2.83464,0z"  fill="black" id="62" stroke-width="0"/>
     </g>
    </g>
   </g>
  </g>
  <g partID="854121490">
   <g transform="translate(138.571,42.2921)">
    <g  id="copper0">
     <g stroke="black" width="7.10929" x="10.8454" y="5.33197"  fill="none" id="63" height="7.10929" stroke-width="1.44"/>
     <g stroke="black" cx="14.4"  fill="none" r="3.55465" id="64" cy="8.8866" stroke-width="1.44"/>
     <g stroke="black" cx="14.4"  fill="none" r="3.55465" id="65" cy="23.0599" stroke-width="1.44"/>
     <g stroke="black" cx="14.4"  fill="none" r="3.55465" id="66" cy="37.2331" stroke-width="1.44"/>
    </g>
   </g>
  </g>
  <g partID="12679620">
   <g transform="translate(57.5713,71.2452)">
    <g transform="matrix(-1,0,0,-1,0,0)">
     <g  id="copper0">
      <g stroke="black" width="3.96" x="1.98" y="5.58"  fill="none" id="67" height="3.96" stroke-width="1.44"/>
      <g stroke="black" cx="3.96"  fill="none" r="1.98" id="68" cy="7.56" stroke-width="1.44"/>
      <g stroke="black" cx="11.16"  fill="none" r="1.98" id="69" cy="7.56" stroke-width="1.44"/>
     </g>
    </g>
   </g>
  </g>
  <g partID="854167040">
   <g transform="translate(41.6593,28.6932)">
    <g  id="copper0">
     <g stroke="black" cx="4.752"  fill="none" r="1.98" id="70" cy="4.752" stroke-width="1.44"/>
     <g stroke="black" cx="20.592"  fill="none" r="1.98" id="71" cy="16.272" stroke-width="1.44"/>
    </g>
   </g>
  </g>
  <g partID="854313630">
   <g transform="translate(39.4273,23.5452)">
    <g transform="matrix(0,1,-1,0,0,0)">
     <g  id="copper0">
      <g  id="copper1">
       <!-- <rect width="55" x="10" y="15.5" fill="none" height="55" stroke="rgb(255, 191, 0)" stroke-width="20" />  -->
       <g stroke="black" cx="2.7"  fill="none" r="1.98" id="72" cy="3.096" stroke-width="1.44"/>
       <g stroke="black" cx="31.5"  fill="none" r="1.98" id="73" cy="3.096" stroke-width="1.44"/>
      </g>
     </g>
    </g>
   </g>
  </g>
  <g partID="854313000">
   <g transform="translate(24.3793,9.97319)">
    <g  id="copper0">
     <g stroke="black" cx="4.752"  fill="none" r="1.98" id="74" cy="4.752" stroke-width="1.44"/>
     <g stroke="black" cx="4.752"  fill="none" r="1.98" id="75" cy="29.232" stroke-width="1.44"/>
    </g>
   </g>
  </g>
 </g>
</svg>
