<?xml version='1.0' encoding='UTF-8' standalone='no'?>
<!-- Created with Fritzing (http://www.fritzing.org/) -->
<svg xmlns="http://www.w3.org/2000/svg"  version="1.2" height="1.37795in" width="2.55906in" xmlns:svg="http://www.w3.org/2000/svg" x="0in" viewBox="0 0 184.252 99.2126" y="0in" baseProfile="tiny">
 <g transform="matrix(-1, 0, 0, 1, 184.252, 0)">
  <g partID="12452970">
   <g id="board">
    <rect height="98.6366" id="boardoutline" stroke="black" width="183.676" x="0.288" y="0.288" fill-opacity="0.5" stroke-width="0.5" fill="none"/>
   </g>
  </g>
  <g partID="854105481">
   <g transform="translate(145.321,36.1297)">
    <g transform="matrix(0,1,-1,0,0,0)">
     <g transform="matrix(1, 0, 0, 1, 0, -795.118)">
      <g id="silkscreen">
       <g>
        <g transform="matrix(1, 0, 0, 1, 0, 795.118)">
         <g id="0.3.0.0">
          <path stroke="black" id="path3761" d="m0,46.7717,63.7795,0,0,-46.7717,-63.7795,0z" stroke-opacity="1" stroke-width="0.79937" style="stroke-linecap:butt;stroke-linejoin:miter;stroke-miterlimit:4;stroke-dasharray:none" fill="none"/>
         </g>
        </g>
       </g>
      </g>
     </g>
    </g>
   </g>
  </g>
  <g partID="854106261">
   <g transform="translate(133.655,28.5296)">
    <g transform="matrix(-1,0,0,-1,0,0)">
     <g id="silkscreen">
      <line stroke="black" class="other" y1="0.36" x1="26.208" y2="0.36" stroke-width="0.72" x2="22.608" stroke-linecap="round"/>
      <line stroke="black" class="other" y1="0.36" x1="22.608" y2="0.36" stroke-width="0.72" x2="8.208" stroke-linecap="round"/>
      <line stroke="black" class="other" y1="0.36" x1="8.208" y2="3.96" stroke-width="0.72" x2="8.208" stroke-linecap="round"/>
      <line stroke="black" class="other" y1="3.96" x1="8.208" y2="7.56" stroke-width="0.72" x2="8.208" stroke-linecap="round"/>
      <line stroke="black" class="other" y1="7.56" x1="8.208" y2="7.56" stroke-width="0.72" x2="22.608" stroke-linecap="round"/>
      <line stroke="black" class="other" y1="7.56" x1="22.608" y2="7.56" stroke-width="0.72" x2="26.208" stroke-linecap="round"/>
      <line stroke="black" class="other" y1="7.56" x1="26.208" y2="3.96" stroke-width="0.72" x2="26.208" stroke-linecap="round"/>
      <line stroke="black" class="other" y1="3.96" x1="26.208" y2="0.36" stroke-width="0.72" x2="26.208" stroke-linecap="round"/>
      <line stroke="black" class="other" y1="0.36" x1="22.608" y2="7.56" stroke-width="0.72" x2="22.608" stroke-linecap="round"/>
      <line stroke="black" class="other" y1="3.96" x1="8.208" y2="3.96" stroke-width="0.72" x2="6.408" stroke-linecap="round"/>
      <line stroke="black" class="other" y1="3.96" x1="26.208" y2="3.96" stroke-width="0.72" x2="28.008" stroke-linecap="round"/>
     </g>
    </g>
   </g>
  </g>
  <g partID="854181421">
   <g transform="translate(97.7992,3.3296)">
    <g id="silkscreen">
     <line stroke="black" class="other" y1="0.36" x1="26.208" y2="0.36" stroke-width="0.72" x2="22.608" stroke-linecap="round"/>
     <line stroke="black" class="other" y1="0.36" x1="22.608" y2="0.36" stroke-width="0.72" x2="8.208" stroke-linecap="round"/>
     <line stroke="black" class="other" y1="0.36" x1="8.208" y2="3.96" stroke-width="0.72" x2="8.208" stroke-linecap="round"/>
     <line stroke="black" class="other" y1="3.96" x1="8.208" y2="7.56" stroke-width="0.72" x2="8.208" stroke-linecap="round"/>
     <line stroke="black" class="other" y1="7.56" x1="8.208" y2="7.56" stroke-width="0.72" x2="22.608" stroke-linecap="round"/>
     <line stroke="black" class="other" y1="7.56" x1="22.608" y2="7.56" stroke-width="0.72" x2="26.208" stroke-linecap="round"/>
     <line stroke="black" class="other" y1="7.56" x1="26.208" y2="3.96" stroke-width="0.72" x2="26.208" stroke-linecap="round"/>
     <line stroke="black" class="other" y1="3.96" x1="26.208" y2="0.36" stroke-width="0.72" x2="26.208" stroke-linecap="round"/>
     <line stroke="black" class="other" y1="0.36" x1="22.608" y2="7.56" stroke-width="0.72" x2="22.608" stroke-linecap="round"/>
     <line stroke="black" class="other" y1="3.96" x1="8.208" y2="3.96" stroke-width="0.72" x2="6.408" stroke-linecap="round"/>
     <line stroke="black" class="other" y1="3.96" x1="26.208" y2="3.96" stroke-width="0.72" x2="28.008" stroke-linecap="round"/>
    </g>
   </g>
  </g>
  <g partID="854106691">
   <g transform="translate(144.527,10.6016)">
    <g id="silkscreen">
     <line id="line7" stroke="black" y1="3.6" x1="5.76" y2="3.6" stroke-width="0.72" x2="15.84"/>
     <path id="path2413" stroke="black" d="M16.7479,11.2431A6.11074,3.79092,0,0,1,4.52687,11.2864" stroke-width="0.72" fill-opacity="1" stroke-opacity="1" style="opacity:1;fill-rule:nonzero;stroke-linecap:round;stroke-linejoin:round;stroke-miterlimit:4;stroke-dasharray:none;" fill="none"/>
    </g>
   </g>
  </g>
  <g partID="854113101">
   <g transform="translate(167.621,20.3976)">
    <g transform="matrix(0,-1,1,0,0,0)">
     <g id="silkscreen">
      <path stroke-linejoin="round" id="path2820" stroke="black" d="M13.912,0.3048c3.748,2.8296,4.4912,8.1624,1.6608,11.9112c-2.8304,3.748,-8.1632,4.4912,-11.9112,1.6608S-0.8288,5.7128,2.0016,1.9656C2.4824,1.328,3.0504,0.7616,3.6904,0.2832" stroke-width="0.56696" stroke-linecap="round" fill="none"/>
      <path id="path3707" stroke="black" d="M13.8896,0.2872L3.6848,0.2872" stroke-width="0.56696" stroke-linecap="round" fill="none"/>
     </g>
    </g>
   </g>
  </g>
  <g partID="854183771">
   <g transform="translate(130.667,8.5496)">
    <g transform="matrix(1,3.88578e-16,-3.88578e-16,1,0,0)">
     <g id="silkscreen">
      <circle cy="4.5" stroke="black" cx="4.5" stroke-width="0.72" r="4.104" fill="none"/>
      <rect height="1.44" stroke="black" width="1.44" x="7.38" y="3.78" stroke-width="0.72" fill="black"/>
     </g>
    </g>
   </g>
  </g>
  <g partID="12736870">
   <g transform="translate(75.3933,-0.789881)">
    <g id="silkscreen">
     <text text-anchor="middle" id="label" font-size="7.2" xmlns:xml="http://www.w3.org/XML/1998/namespace" x="7.2" y="6.48" font-family="OCRA" stroke-width="0" xml:space="preserve" fill="black">5v</text>
    </g>
   </g>
  </g>
  <g partID="854126211">
   <g transform="translate(165.587,11.7896)">
    <g transform="matrix(-1,0,0,-1,0,0)">
     <g id="silkscreen">
      <circle cy="4.5" stroke="black" cx="9.9" stroke-width="0.72" r="4.104" fill="none"/>
      <rect height="1.44" stroke="black" width="1.44" x="5.58" y="3.78" stroke-width="0.72" fill="black"/>
     </g>
    </g>
   </g>
  </g>
  <g partID="854110301">
   <g transform="translate(179.627,30.5096)">
    <g transform="matrix(-1,0,0,-1,0,0)">
     <g id="silkscreen">
      <circle cy="4.5" stroke="black" cx="9.9" stroke-width="0.72" r="4.104" fill="none"/>
      <rect height="1.44" stroke="black" width="1.44" x="5.58" y="3.78" stroke-width="0.72" fill="black"/>
     </g>
    </g>
   </g>
  </g>
  <g partID="854112791">
   <g transform="translate(96.1967,35.1822)">
    <g transform="matrix(-1,0,0,-1,0,0)">
     <g id="silkscreen">
      <line stroke="black" class="other" y1="3.11811" x1="24.8031" y2="3.11811" stroke-width="0.576" x2="12.0472" stroke-linecap="round"/>
      <line stroke="black" class="other" y1="5.95276" x1="0.708661" y2="18.1417" stroke-width="0.576" x2="0.708661" stroke-linecap="round"/>
      <line stroke="black" class="other" y1="23.4992" x1="0.708661" y2="33.1654" stroke-width="0.576" x2="0.708661" stroke-linecap="round"/>
      <line stroke="black" class="other" y1="33.1654" x1="24.8031" y2="3.11811" stroke-width="0.576" x2="24.8031" stroke-linecap="round"/>
      <line stroke="black" class="other" y1="33.1654" x1="0.708661" y2="33.1654" stroke-width="0.576" x2="24.8031" stroke-linecap="round"/>
      <line stroke="black" class="other" y1="33.1654" x1="24.8031" y2="33.1654" stroke-width="0.576" x2="24.6614" stroke-linecap="round"/>
     </g>
    </g>
   </g>
  </g>
  <g partID="854121491">
   <g transform="translate(151.007,43.0432)">
    <g id="silkscreen">
     <line id="vertical-left" stroke="black" y1="1.44" x1="1.44" y2="44.6797" stroke-width="0.72" x2="1.44"/>
     <line id="bottom" stroke="black" y1="44.6797" x1="1.44" y2="44.6797" stroke-width="0.72" x2="33.12"/>
     <line id="vertical-right" stroke="black" y1="44.6797" x1="33.12" y2="1.44" stroke-width="0.72" x2="33.12"/>
     <line id="top" stroke="black" y1="1.44" x1="33.12" y2="1.44" stroke-width="0.72" x2="1.44"/>
     <line id="mid-vertical" stroke="black" y1="44.6797" x1="27.36" y2="1.44" stroke-width="0.36" x2="27.36"/>
    </g>
   </g>
  </g>
  <g partID="12679621">
   <g transform="translate(59.9272,71.0096)">
    <g transform="matrix(-1,0,0,-1,0,0)">
     <g id="silkscreen">
      <circle cy="7.56" id="circle7" stroke="black" cx="7.56" stroke-width="0.72" r="7.2" fill="none"/>
      <path stroke="black" d="m2.88,3.6,2.16,0" stroke-width="0.792" stroke-linecap="round" fill="none"/>
      <path stroke="black" d="m2.88,11.52,2.16,0" stroke-width="0.792" stroke-linecap="round" fill="none"/>
     </g>
    </g>
   </g>
  </g>
  <g partID="854164831">
   <g transform="translate(44.0152,21.2576)">
    <g id="silkscreen">
     <line stroke="black" y1="4.752" x1="7.452" y2="4.752" stroke-width="1.512" x2="17.892" stroke-linecap="round"/>
    </g>
   </g>
  </g>
  <g partID="854167041">
   <g transform="translate(44.0152,28.4576)">
    <g id="silkscreen">
     <line stroke="black" y1="4.752" x1="7.452" y2="4.752" stroke-width="1.512" x2="17.892" stroke-linecap="round"/>
    </g>
   </g>
  </g>
  <g partID="854271611">
   <g transform="translate(35.0872,82.8896)">
    <g transform="matrix(0,1,-1,0,0,0)">
     <g id="silkscreen">
      <line stroke="black" y1="1.44" x1="1.44" y2="30.24" stroke-width="0.72" x2="1.44"/>
      <line stroke="black" y1="30.24" x1="1.44" y2="30.24" stroke-width="0.72" x2="8.64"/>
      <line stroke="black" y1="30.24" x1="8.64" y2="1.44" stroke-width="0.72" x2="8.64"/>
      <line stroke="black" y1="1.44" x1="8.64" y2="1.44" stroke-width="0.72" x2="1.44"/>
      <line stroke="black" y1="3.96" x1="1.44" y2="1.44" stroke-width="0.36" x2="3.96"/>
      <!-- 120 -->
     </g>
    </g>
   </g>
  </g>
  <g partID="854272301">
   <g transform="translate(43.7272,20.9696)">
    <g id="silkscreen">
     <line stroke="black" y1="1.44" x1="1.44" y2="30.24" stroke-width="0.72" x2="1.44"/>
     <line stroke="black" y1="30.24" x1="1.44" y2="30.24" stroke-width="0.72" x2="8.64"/>
     <line stroke="black" y1="30.24" x1="8.64" y2="1.44" stroke-width="0.72" x2="8.64"/>
     <line stroke="black" y1="1.44" x1="8.64" y2="1.44" stroke-width="0.72" x2="1.44"/>
     <line stroke="black" y1="3.96" x1="1.44" y2="1.44" stroke-width="0.36" x2="3.96"/>
     <!-- 120 -->
    </g>
   </g>
  </g>
  <g partID="854272541">
   <g transform="translate(88.3332,89.335)">
    <g transform="matrix(-1,0,0,-1,0,0)">
     <g id="silkscreen">
      <line stroke="black" y1="6.38928" x1="20.137" y2="12.0586" stroke-width="0.72" x2="20.137"/>
      <line stroke="black" y1="0.72" x1="5.96376" y2="0.72" stroke-width="0.72" x2="18.0115"/>
      <line stroke="black" y1="17.7278" x1="5.96376" y2="17.7278" stroke-width="0.72" x2="18.0115"/>
      <line stroke="black" y1="6.38928" x1="3.12912" y2="12.0586" stroke-width="0.72" x2="3.12912"/>
      <line stroke="black" y1="7.80696" x1="11.633" y2="10.6416" stroke-width="0.72" x2="11.633"/>
      <line stroke="black" y1="9.22392" x1="13.0507" y2="9.22392" stroke-width="0.72" x2="10.2161"/>
     </g>
    </g>
   </g>
  </g>
  <g partID="854132901">
   <g transform="translate(67.7032,34.8296)">
    <g transform="matrix(-2.77556e-16,1,-1,-2.77556e-16,0,0)">
     <g id="silkscreen">
      <line stroke="black" y1="3.096" x1="5.4" y2="3.096" stroke-width="0.72" x2="10.584"/>
      <line stroke="black" y1="3.096" x1="24.984" y2="3.096" stroke-width="0.72" x2="28.8"/>
      <line stroke="black" y1="0.72" x1="10.584" y2="0.72" stroke-width="0.72" x2="24.984"/>
      <line stroke="black" y1="0.72" x1="24.984" y2="5.472" stroke-width="0.72" x2="24.984"/>
      <line stroke="black" y1="5.472" x1="24.984" y2="5.472" stroke-width="0.72" x2="10.584"/>
      <line stroke="black" y1="5.472" x1="10.584" y2="0.72" stroke-width="0.72" x2="10.584"/>
     </g>
    </g>
   </g>
  </g>
  <g partID="854279881">
   <g transform="translate(3.4072,75.6896)">
    <g transform="matrix(0,-1,1,0,0,0)">
     <g id="silkscreen">
      <line stroke="black" y1="1.44" x1="1.44" y2="30.24" stroke-width="0.72" x2="1.44"/>
      <line stroke="black" y1="30.24" x1="1.44" y2="30.24" stroke-width="0.72" x2="15.84"/>
      <line stroke="black" y1="30.24" x1="15.84" y2="1.44" stroke-width="0.72" x2="15.84"/>
      <line stroke="black" y1="1.44" x1="15.84" y2="1.44" stroke-width="0.72" x2="1.44"/>
      <line stroke="black" y1="3.96" x1="1.44" y2="1.44" stroke-width="0.36" x2="3.96"/>
      <!-- 120 -->
     </g>
    </g>
   </g>
  </g>
  <g id="partLabel" partID="854271610">
   <g transform="translate(13.6481,94.9377)">
    <g font-style="normal" id="silkscreenLabel" stroke="none" font-size="5" font-family="'OCRA'" fill-opacity="1" font-weight="normal" fill="#000000">
     <text x="0" y="3.75">J3</text>
    </g>
   </g>
  </g>
  <g id="partLabel" partID="854272300">
   <g transform="translate(32.7667,43.947)">
    <g font-style="normal" id="silkscreenLabel" stroke="none" font-size="5" font-family="'OCRA'" fill-opacity="1" font-weight="normal" fill="#000000">
     <text x="0" y="3.75">J4</text>
    </g>
   </g>
  </g>
  <g id="partLabel" partID="854272540">
   <g transform="translate(79.4099,91.5163)">
    <g font-style="normal" id="silkscreenLabel" stroke="none" font-size="5" font-family="'OCRA'" fill-opacity="1" font-weight="normal" fill="#000000">
     <text x="0" y="3.75">S1</text>
    </g>
   </g>
  </g>
  <g id="partLabel" partID="854132900">
   <g transform="translate(68.4221,52.3504)">
    <g font-style="normal" id="silkscreenLabel" stroke="none" font-size="5" font-family="'OCRA'" fill-opacity="1" font-weight="normal" fill="#000000">
     <text x="0" y="3.75">R3</text>
    </g>
   </g>
  </g>
  <g id="partLabel" partID="854279880">
   <g transform="translate(3.70632,53.4605)">
    <g font-style="normal" id="silkscreenLabel" stroke="none" font-size="5" font-family="'OCRA'" fill-opacity="1" font-weight="normal" fill="#000000">
     <text x="0" y="3.75">ESP8266</text>
    </g>
   </g>
  </g>
  <g id="partLabel" partID="12679620">
   <g transform="translate(33.5589,55.7175)">
    <g transform="matrix(1,0,0,1,0,0)">
     <g font-style="normal" id="silkscreenLabel" stroke="none" font-size="5" font-family="'OCRA'" fill-opacity="1" font-weight="normal" fill="#000000">
      <text x="0" y="3.75">10uF</text>
     </g>
    </g>
   </g>
  </g>
  <g id="partLabel" partID="854106260">
   <g transform="translate(114.03,22.7842)">
    <g font-style="normal" id="silkscreenLabel" stroke="none" font-size="5" font-family="'OCRA'" fill-opacity="1" font-weight="normal" fill="#000000">
     <text x="0" y="3.75">D1</text>
    </g>
   </g>
  </g>
  <g id="partLabel" partID="854106690">
   <g transform="translate(152.077,17.2096)">
    <g font-style="normal" id="silkscreenLabel" stroke="none" font-size="5" font-family="'OCRA'" fill-opacity="1" font-weight="normal" fill="#000000">
     <text x="0" y="3.75">Q1</text>
    </g>
   </g>
  </g>
  <g id="partLabel" partID="854181420">
   <g transform="translate(110.852,5.3592)">
    <g font-style="normal" id="silkscreenLabel" stroke="none" font-size="5" font-family="'OCRA'" fill-opacity="1" font-weight="normal" fill="#000000">
     <text x="0" y="3.75">D2</text>
    </g>
   </g>
  </g>
  <g id="partLabel" partID="854105480">
   <g transform="translate(118.847,74.0633)">
    <g font-style="normal" id="silkscreenLabel" stroke="none" font-size="5" font-family="'OCRA'" fill-opacity="1" font-weight="normal" fill="#000000">
     <text x="0" y="3.75">K1</text>
    </g>
   </g>
  </g>
  <g id="partLabel" partID="854110300">
   <g transform="translate(171.216,29.2655)">
    <g font-style="normal" id="silkscreenLabel" stroke="none" font-size="5" font-family="'OCRA'" fill-opacity="1" font-weight="normal" fill="#000000">
     <text x="0" y="3.75">R1</text>
    </g>
   </g>
  </g>
  <g id="partLabel" partID="854112790">
   <g transform="translate(75.3496,10.3856)">
    <g font-style="normal" id="silkscreenLabel" stroke="none" font-size="5" font-family="'OCRA'" fill-opacity="1" font-weight="normal" fill="#000000">
     <text x="0" y="3.75">J2</text>
    </g>
   </g>
  </g>
  <g id="partLabel" partID="854183770">
   <g transform="translate(142.046,11.1168)">
    <g font-style="normal" id="silkscreenLabel" stroke="none" font-size="5" font-family="'OCRA'" fill-opacity="1" font-weight="normal" fill="#000000">
     <text x="0" y="3.75">R4</text>
    </g>
   </g>
  </g>
  <g id="partLabel" partID="854113100">
   <g transform="translate(177.062,4.756)">
    <g transform="matrix(0,1,-1,0,0,0)">
     <g font-style="normal" id="silkscreenLabel" stroke="none" font-size="5" font-family="'OCRA'" fill-opacity="1" font-weight="normal" fill="#000000">
      <text x="0" y="3.75">LED1</text>
     </g>
    </g>
   </g>
  </g>
  <g id="partLabel" partID="854126210">
   <g transform="translate(162.466,5.5688)">
    <g font-style="normal" id="silkscreenLabel" stroke="none" font-size="5" font-family="'OCRA'" fill-opacity="1" font-weight="normal" fill="#000000">
     <text x="0" y="3.75">R2</text>
    </g>
   </g>
  </g>
  <g id="partLabel" partID="854121490">
   <g transform="translate(157.277,70.596)">
    <g font-style="normal" id="silkscreenLabel" stroke="none" font-size="5" font-family="'OCRA'" fill-opacity="1" font-weight="normal" fill="#000000">
     <text x="0" y="3.75">J1</text>
    </g>
   </g>
  </g>
  <g partID="854105482">
   <g transform="translate(145.321,36.1297)">
    <g transform="matrix(0,1,-1,0,0,0)">
     <g transform="matrix(1, 0, 0, 1, 0, -795.118)">
      <g id="copper1">
       <g>
        <g transform="matrix(1, 0, 0, 1, 0, 795.118)">
         <g id="0.3.1.0">
          <path stroke="white" id="connector2pin" d="m10.4882,23.3858a3.25984,3.25984,0,1,1,-6.51969,0,3.25984,3.25984,0,1,1,6.51969,0z" stroke-opacity="1" stroke-width="3.55465" style="opacity:0.98000004;stroke-miterlimit:4;stroke-dasharray:none" fill="white"/>
         </g>
        </g>
        <g transform="matrix(1, 0, 0, 1, 5.81102, 812.126)">
         <g id="0.3.1.1">
          <path stroke="white" id="path3782-7" d="m10.4882,23.3858a3.25984,3.25984,0,1,1,-6.51969,0,3.25984,3.25984,0,1,1,6.51969,0z" stroke-opacity="1" stroke-width="3.55465" style="opacity:0.98000004;stroke-miterlimit:4;stroke-dasharray:none" fill="white"/>
         </g>
        </g>
        <g transform="matrix(1, 0, 0, 1, 40.252, 812.126)">
         <g id="0.3.1.2">
          <path stroke="white" id="path3782-7-5" d="m10.4882,23.3858a3.25984,3.25984,0,1,1,-6.51969,0,3.25984,3.25984,0,1,1,6.51969,0z" stroke-opacity="1" stroke-width="3.55465" style="opacity:0.98000004;stroke-miterlimit:4;stroke-dasharray:none" fill="white"/>
         </g>
        </g>
        <g transform="matrix(1, 0, 0, 1, 5.81102, 812.126)">
         <g id="0.3.1.3">
          <path stroke="white" id="connector1pin" d="m10.4882,23.3858a3.25984,3.25984,0,1,1,-6.51969,0,3.25984,3.25984,0,1,1,6.51969,0z" stroke-opacity="1" stroke-width="3.55465" style="opacity:0.98000004;stroke-miterlimit:4;stroke-dasharray:none" fill="white"/>
         </g>
        </g>
        <g transform="matrix(1, 0, 0, 1, 40.252, 812.126)">
         <g id="0.3.1.4">
          <path stroke="white" id="connector0pin" d="m10.4882,23.3858a3.25984,3.25984,0,1,1,-6.51969,0,3.25984,3.25984,0,1,1,6.51969,0z" stroke-opacity="1" stroke-width="3.55465" style="opacity:0.98000004;stroke-miterlimit:4;stroke-dasharray:none" fill="white"/>
         </g>
        </g>
        <g transform="matrix(1, 0, 0, -1, 5.81102, 824.882)">
         <g id="0.3.1.5">
          <path stroke="white" id="connector4pin" d="m10.4882,23.3858a3.25984,3.25984,0,1,1,-6.51969,0,3.25984,3.25984,0,1,1,6.51969,0z" stroke-opacity="1" stroke-width="3.55465" style="opacity:0.98000004;stroke-miterlimit:4;stroke-dasharray:none" fill="white"/>
         </g>
        </g>
        <g transform="matrix(1, 0, 0, -1, 40.252, 824.882)">
         <g id="0.3.1.6">
          <path stroke="white" id="connector5pin" d="m10.4882,23.3858a3.25984,3.25984,0,1,1,-6.51969,0,3.25984,3.25984,0,1,1,6.51969,0z" stroke-opacity="1" stroke-width="3.55465" style="opacity:0.98000004;stroke-miterlimit:4;stroke-dasharray:none" fill="white"/>
         </g>
        </g>
       </g>
      </g>
     </g>
    </g>
   </g>
  </g>
  <g partID="854106262">
   <g transform="translate(133.655,28.5296)">
    <g transform="matrix(-1,0,0,-1,0,0)">
     <g id="copper1">
      <circle cy="3.96" id="connector0pad" stroke="white" connectorname="A" cx="2.808" stroke-width="2.11068" r="2.11266" fill="white"/>
      <circle cy="3.96" id="connector1pad" stroke="white" connectorname="C" cx="31.608" stroke-width="2.11068" r="2.11266" fill="white"/>
      <g id="copper0">
       <circle cy="3.96" id="connector0pad" stroke="white" connectorname="A" cx="2.808" stroke-width="2.11068" r="2.11266" fill="white"/>
       <circle cy="3.96" id="connector1pad" stroke="white" connectorname="C" cx="31.608" stroke-width="2.11068" r="2.11266" fill="white"/>
      </g>
     </g>
    </g>
   </g>
  </g>
  <g partID="854181422">
   <g transform="translate(97.7992,3.3296)">
    <g id="copper1">
     <circle cy="3.96" id="connector0pad" stroke="white" connectorname="A" cx="2.808" stroke-width="2.11068" r="2.11266" fill="white"/>
     <circle cy="3.96" id="connector1pad" stroke="white" connectorname="C" cx="31.608" stroke-width="2.11068" r="2.11266" fill="white"/>
     <g id="copper0">
      <circle cy="3.96" id="connector0pad" stroke="white" connectorname="A" cx="2.808" stroke-width="2.11068" r="2.11266" fill="white"/>
      <circle cy="3.96" id="connector1pad" stroke="white" connectorname="C" cx="31.608" stroke-width="2.11068" r="2.11266" fill="white"/>
     </g>
    </g>
   </g>
  </g>
  <g partID="854106692">
   <g transform="translate(144.527,10.6016)">
    <g id="copper1">
     <g id="copper0">
      <circle cy="8.208" id="connector0pin" stroke="white" cx="3.6" stroke-width="2.16" r="1.98" fill="white"/>
      <circle cy="8.208" id="connector1pin" stroke="white" cx="10.8" stroke-width="2.16" r="1.98" fill="white"/>
      <circle cy="8.208" id="connector2pin" stroke="white" cx="18" stroke-width="2.16" r="1.98" fill="white"/>
     </g>
    </g>
   </g>
  </g>
  <g partID="854113102">
   <g transform="translate(167.621,20.3976)">
    <g transform="matrix(0,-1,1,0,0,0)">
     <g id="copper1">
      <circle cy="10.6336" id="connector1pad" stroke="white" cx="8.7876" stroke-width="1.85384" r="1.7008" fill="white"/>
      <rect height="3.4016" stroke="white" width="3.4016" x="7.0868" y="8.9328" stroke-width="1.85384" fill="white"/>
      <circle cy="3.5464" id="connector0pad" stroke="white" cx="8.7876" stroke-width="1.85384" r="1.7008" fill="white"/>
     </g>
    </g>
   </g>
  </g>
  <g partID="854183772">
   <g transform="translate(130.667,8.5496)">
    <g transform="matrix(1,3.88578e-16,-3.88578e-16,1,0,0)">
     <g id="copper1">
      <!-- <rect width="55" x="35" y="35" fill="none" height="55" stroke="rgb(255, 191, 0)" stroke-width="20" /> -->
      <circle cy="4.5" stroke="white" id="connector0pin" cx="4.5" stroke-width="2.16" r="1.98" fill="white"/>
      <circle cy="4.5" stroke="white" id="connector1pin" cx="11.7" stroke-width="2.16" r="1.98" fill="white"/>
     </g>
    </g>
   </g>
  </g>
  <g partID="854126212">
   <g transform="translate(165.587,11.7896)">
    <g transform="matrix(-1,0,0,-1,0,0)">
     <g id="copper1">
      <!--  <rect width="55" x="10" y="35" fill="none" height="55" stroke="rgb(255, 191, 0)" stroke-width="20" /> -->
      <circle cy="4.5" stroke="white" id="connector0pin" cx="2.7" stroke-width="2.16" r="1.98" fill="white"/>
      <circle cy="4.5" stroke="white" id="connector1pin" cx="9.9" stroke-width="2.16" r="1.98" fill="white"/>
     </g>
    </g>
   </g>
  </g>
  <g partID="854110302">
   <g transform="translate(179.627,30.5096)">
    <g transform="matrix(-1,0,0,-1,0,0)">
     <g id="copper1">
      <!--  <rect width="55" x="10" y="35" fill="none" height="55" stroke="rgb(255, 191, 0)" stroke-width="20" /> -->
      <circle cy="4.5" stroke="white" id="connector0pin" cx="2.7" stroke-width="2.16" r="1.98" fill="white"/>
      <circle cy="4.5" stroke="white" id="connector1pin" cx="9.9" stroke-width="2.16" r="1.98" fill="white"/>
     </g>
    </g>
   </g>
  </g>
  <g partID="854112792">
   <g transform="translate(96.1967,35.1822)">
    <g transform="matrix(-1,0,0,-1,0,0)">
     <g id="copper1">
      <circle cy="2.83465" id="connector2pad" stroke="white" connectorname="PWR" cx="5.66929" stroke-width="2.13732" r="2.12598" fill="white"/>
      <path stroke="white" d="m8.50393,0a2.83464,2.83465,0,0,1,2.83464,2.83465l0,0a2.83464,2.83465,0,0,1,-2.83464,2.83465l-5.66929,0a2.83464,2.83465,0,0,1,-2.83464,-2.83465l0,0a2.83464,2.83465,0,0,1,2.83464,-2.83465l5.66929,0zM4.25197,2.83465a1.41732,1.41732,0,1,0,2.83464,0,1.41732,1.41732,0,1,0,-2.83464,0z" stroke-width="0.72" fill="white"/>
      <circle cy="20.6929" id="connector0pad" stroke="white" connectorname="GND@1" cx="5.66929" stroke-width="2.13732" r="2.12598" fill="white"/>
      <path stroke="white" d="m8.50393,17.8583a2.83464,2.83465,0,0,1,2.83464,2.83465l0,0a2.83464,2.83465,0,0,1,-2.83464,2.83465l-5.66929,0a2.83464,2.83465,0,0,1,-2.83464,-2.83465l0,0a2.83464,2.83465,0,0,1,2.83464,-2.83465l5.66929,0zM4.25197,20.6929a1.41732,1.41732,0,1,0,2.83464,0,1.41732,1.41732,0,1,0,-2.83464,0z" stroke-width="0.72" fill="white"/>
      <circle cy="11.3386" id="connector1pad" stroke="white" connectorname="GND@2" cx="19.8425" stroke-width="2.13732" r="2.12598" fill="white"/>
      <path stroke="white" d="m19.8425,5.66929a2.83464,2.83465,0,0,1,2.83464,2.83465l0,5.66929a2.83464,2.83465,0,0,1,-2.83464,2.83465l0,0a2.83464,2.83465,0,0,1,-2.83464,-2.83465l0,-5.66929a2.83464,2.83465,0,0,1,2.83464,-2.83465l0,0zM18.4252,11.3386a1.41732,1.41732,0,1,0,2.83464,0,1.41732,1.41732,0,1,0,-2.83464,0z" stroke-width="0.72" fill="white"/>
      <g id="copper0">
       <circle cy="2.83465" id="connector2pad" stroke="white" connectorname="PWR" cx="5.66929" stroke-width="2.13732" r="2.12598" fill="white"/>
       <path stroke="white" d="m8.50393,0a2.83464,2.83465,0,0,1,2.83464,2.83465l0,0a2.83464,2.83465,0,0,1,-2.83464,2.83465l-5.66929,0a2.83464,2.83465,0,0,1,-2.83464,-2.83465l0,0a2.83464,2.83465,0,0,1,2.83464,-2.83465l5.66929,0zM4.25197,2.83465a1.41732,1.41732,0,1,0,2.83464,0,1.41732,1.41732,0,1,0,-2.83464,0z" stroke-width="0.72" fill="white"/>
       <circle cy="20.6929" id="connector0pad" stroke="white" connectorname="GND@1" cx="5.66929" stroke-width="2.13732" r="2.12598" fill="white"/>
       <path stroke="white" d="m8.50393,17.8583a2.83464,2.83465,0,0,1,2.83464,2.83465l0,0a2.83464,2.83465,0,0,1,-2.83464,2.83465l-5.66929,0a2.83464,2.83465,0,0,1,-2.83464,-2.83465l0,0a2.83464,2.83465,0,0,1,2.83464,-2.83465l5.66929,0zM4.25197,20.6929a1.41732,1.41732,0,1,0,2.83464,0,1.41732,1.41732,0,1,0,-2.83464,0z" stroke-width="0.72" fill="white"/>
       <circle cy="11.3386" id="connector1pad" stroke="white" connectorname="GND@2" cx="19.8425" stroke-width="2.13732" r="2.12598" fill="white"/>
       <path stroke="white" d="m19.8425,5.66929a2.83464,2.83465,0,0,1,2.83464,2.83465l0,5.66929a2.83464,2.83465,0,0,1,-2.83464,2.83465l0,0a2.83464,2.83465,0,0,1,-2.83464,-2.83465l0,-5.66929a2.83464,2.83465,0,0,1,2.83464,-2.83465l0,0zM18.4252,11.3386a1.41732,1.41732,0,1,0,2.83464,0,1.41732,1.41732,0,1,0,-2.83464,0z" stroke-width="0.72" fill="white"/>
      </g>
     </g>
    </g>
   </g>
  </g>
  <g partID="854121492">
   <g transform="translate(151.007,43.0432)">
    <g id="copper1">
     <g id="copper0">
      <rect height="7.10929" id="square" width="7.10929" stroke="white" x="10.8454" y="5.33197" stroke-width="2.16" fill="white"/>
      <circle cy="8.8866" id="connector0pin" stroke="white" cx="14.4" stroke-width="2.16" r="3.55465" fill="white"/>
      <circle cy="23.0599" id="connector1pin" stroke="white" cx="14.4" stroke-width="2.16" r="3.55465" fill="white"/>
      <circle cy="37.2331" id="connector2pin" stroke="white" cx="14.4" stroke-width="2.16" r="3.55465" fill="white"/>
     </g>
    </g>
   </g>
  </g>
  <g partID="12679622">
   <g transform="translate(59.9272,71.0096)">
    <g transform="matrix(-1,0,0,-1,0,0)">
     <g id="copper1">
      <g id="copper0">
       <rect height="3.96" width="3.96" id="rect11" stroke="white" x="1.98" y="5.58" stroke-width="2.16" fill="white"/>
       <circle cy="7.56" id="connector0pin" stroke="white" cx="3.96" stroke-width="2.16" r="1.98" fill="white"/>
       <circle cy="7.56" id="connector1pin" stroke="white" cx="11.16" stroke-width="2.16" r="1.98" fill="white"/>
      </g>
     </g>
    </g>
   </g>
  </g>
  <g partID="854164833">
   <g transform="translate(44.0152,21.2576)">
    <g id="copper1">
     <circle cy="4.752" stroke="white" id="connector0pad" cx="4.752" stroke-width="2.16" r="1.98" fill="white"/>
     <circle cy="4.752" stroke="white" id="connector1pad" cx="20.592" stroke-width="2.16" r="1.98" fill="white"/>
    </g>
   </g>
  </g>
  <g partID="854167043">
   <g transform="translate(44.0152,28.4576)">
    <g id="copper1">
     <circle cy="4.752" stroke="white" id="connector0pad" cx="4.752" stroke-width="2.16" r="1.98" fill="white"/>
     <circle cy="4.752" stroke="white" id="connector1pad" cx="20.592" stroke-width="2.16" r="1.98" fill="white"/>
    </g>
   </g>
  </g>
  <g partID="854271612">
   <g transform="translate(35.0872,82.8896)">
    <g transform="matrix(0,1,-1,0,0,0)">
     <g id="copper1">
      <g id="copper0">
       <circle cy="5.04" id="connector0pin" stroke="white" cx="5.04" stroke-width="2.16" r="2.088" fill="white"/>
       <circle cy="12.24" id="connector1pin" stroke="white" cx="5.04" stroke-width="2.16" r="2.088" fill="white"/>
       <circle cy="19.44" id="connector2pin" stroke="white" cx="5.04" stroke-width="2.16" r="2.088" fill="white"/>
       <circle cy="26.64" id="connector3pin" stroke="white" cx="5.04" stroke-width="2.16" r="2.088" fill="white"/>
      </g>
     </g>
    </g>
   </g>
  </g>
  <g partID="854272302">
   <g transform="translate(43.7272,20.9696)">
    <g id="copper1">
     <g id="copper0">
      <circle cy="5.04" id="connector0pin" stroke="white" cx="5.04" stroke-width="2.16" r="2.088" fill="white"/>
      <circle cy="12.24" id="connector1pin" stroke="white" cx="5.04" stroke-width="2.16" r="2.088" fill="white"/>
      <circle cy="19.44" id="connector2pin" stroke="white" cx="5.04" stroke-width="2.16" r="2.088" fill="white"/>
      <circle cy="26.64" id="connector3pin" stroke="white" cx="5.04" stroke-width="2.16" r="2.088" fill="white"/>
     </g>
    </g>
   </g>
  </g>
  <g partID="854272542">
   <g transform="translate(88.3332,89.335)">
    <g transform="matrix(-1,0,0,-1,0,0)">
     <g id="copper1">
      <g id="copper0">
       <circle cy="15.6024" id="connector0pad" stroke="white" cx="20.8462" stroke-width="2.16" r="1.98" fill="white"/>
       <circle cy="15.6024" id="connector1pad" stroke="white" cx="2.42064" stroke-width="2.16" r="1.98" fill="white"/>
       <circle cy="2.84616" id="connector2pad" stroke="white" cx="20.8462" stroke-width="2.16" r="1.98" fill="white"/>
       <circle cy="2.84616" id="connector3pad" stroke="white" cx="2.42064" stroke-width="2.16" r="1.98" fill="white"/>
      </g>
     </g>
    </g>
   </g>
  </g>
  <g partID="854132902">
   <g transform="translate(67.7032,34.8296)">
    <g transform="matrix(-2.77556e-16,1,-1,-2.77556e-16,0,0)">
     <g id="copper1">
      <!-- <rect width="55" x="10" y="15.5" fill="none" height="55" stroke="rgb(255, 191, 0)" stroke-width="20" />  -->
      <circle cy="3.096" stroke="white" id="connector0pin" cx="2.7" stroke-width="2.16" r="1.98" fill="white"/>
      <circle cy="3.096" stroke="white" id="connector1pin" cx="31.5" stroke-width="2.16" r="1.98" fill="white"/>
     </g>
    </g>
   </g>
  </g>
  <g partID="854279882">
   <g transform="translate(3.4072,75.6896)">
    <g transform="matrix(0,-1,1,0,0,0)">
     <g id="copper1">
      <g id="copper0">
       <circle cy="5.04" id="connector0pin" stroke="white" cx="5.04" stroke-width="2.16" r="2.088" fill="white"/>
       <circle cy="12.24" id="connector1pin" stroke="white" cx="5.04" stroke-width="2.16" r="2.088" fill="white"/>
       <circle cy="19.44" id="connector2pin" stroke="white" cx="5.04" stroke-width="2.16" r="2.088" fill="white"/>
       <circle cy="26.64" id="connector3pin" stroke="white" cx="5.04" stroke-width="2.16" r="2.088" fill="white"/>
       <circle cy="5.04" id="connector0pin" stroke="white" cx="5.04" stroke-width="2.16" r="2.088" fill="white"/>
       <circle cy="12.24" id="connector1pin" stroke="white" cx="5.04" stroke-width="2.16" r="2.088" fill="white"/>
       <circle cy="19.44" id="connector2pin" stroke="white" cx="5.04" stroke-width="2.16" r="2.088" fill="white"/>
       <circle cy="26.64" id="connector3pin" stroke="white" cx="5.04" stroke-width="2.16" r="2.088" fill="white"/>
       <circle cy="26.64" id="connector4pin" stroke="white" cx="12.24" stroke-width="2.16" r="2.088" fill="white"/>
       <circle cy="19.44" id="connector5pin" stroke="white" cx="12.24" stroke-width="2.16" r="2.088" fill="white"/>
       <circle cy="12.24" id="connector6pin" stroke="white" cx="12.24" stroke-width="2.16" r="2.088" fill="white"/>
       <circle cy="5.04" id="connector7pin" stroke="white" cx="12.24" stroke-width="2.16" r="2.088" fill="white"/>
      </g>
     </g>
    </g>
   </g>
  </g>
 </g>
</svg>
