<?xml version='1.0' encoding='UTF-8' standalone='no'?>
<!-- Created with Fritzing (http://www.fritzing.org/) -->
<svg xmlns="http://www.w3.org/2000/svg"  version="1.2" height="1.37795in" width="2.55906in" xmlns:svg="http://www.w3.org/2000/svg" x="0in" viewBox="0 0 184.252 99.2126" y="0in" baseProfile="tiny">
 <g transform="matrix(-1, 0, 0, 1, 184.252, 0)">
  <g partID="12452970">
   <g  id="board">
    <rect  height="98.6366" id="boardoutline" stroke="black" width="183.676" x="0.288" y="0.288" fill-opacity="0.5" stroke-width="0.5" fill="none"/>
   </g>
  </g>
  <g partID="854272300">
   <g transform="translate(43.7272,20.9696)">
    <g  id="copper0">
     <g  cy="5.04" id="0" stroke="black" cx="5.04" stroke-width="1.44" r="2.088" fill="none"/>
     <g  cy="12.24" id="1" stroke="black" cx="5.04" stroke-width="1.44" r="2.088" fill="none"/>
     <g  cy="19.44" id="2" stroke="black" cx="5.04" stroke-width="1.44" r="2.088" fill="none"/>
     <g  cy="26.64" id="3" stroke="black" cx="5.04" stroke-width="1.44" r="2.088" fill="none"/>
    </g>
   </g>
  </g>
  <g partID="854271610">
   <g transform="translate(35.0872,82.8896)">
    <g transform="matrix(0,1,-1,0,0,0)">
     <g  id="copper0">
      <g  cy="5.04" id="4" stroke="black" cx="5.04" stroke-width="1.44" r="2.088" fill="none"/>
      <g  cy="12.24" id="5" stroke="black" cx="5.04" stroke-width="1.44" r="2.088" fill="none"/>
      <g  cy="19.44" id="6" stroke="black" cx="5.04" stroke-width="1.44" r="2.088" fill="none"/>
      <g  cy="26.64" id="7" stroke="black" cx="5.04" stroke-width="1.44" r="2.088" fill="none"/>
     </g>
    </g>
   </g>
  </g>
  <g partID="854279880">
   <g transform="translate(3.4072,75.6896)">
    <g transform="matrix(0,-1,1,0,0,0)">
     <g  id="copper0">
      <g  cy="5.04" id="8" stroke="black" cx="5.04" stroke-width="1.44" r="2.088" fill="none"/>
      <g  cy="12.24" id="9" stroke="black" cx="5.04" stroke-width="1.44" r="2.088" fill="none"/>
      <g  cy="19.44" id="10" stroke="black" cx="5.04" stroke-width="1.44" r="2.088" fill="none"/>
      <g  cy="26.64" id="11" stroke="black" cx="5.04" stroke-width="1.44" r="2.088" fill="none"/>
      <g  cy="5.04" id="12" stroke="black" cx="5.04" stroke-width="1.44" r="2.088" fill="none"/>
      <g  cy="12.24" id="13" stroke="black" cx="5.04" stroke-width="1.44" r="2.088" fill="none"/>
      <g  cy="19.44" id="14" stroke="black" cx="5.04" stroke-width="1.44" r="2.088" fill="none"/>
      <g  cy="26.64" id="15" stroke="black" cx="5.04" stroke-width="1.44" r="2.088" fill="none"/>
      <g  cy="26.64" id="16" stroke="black" cx="12.24" stroke-width="1.44" r="2.088" fill="none"/>
      <g  cy="19.44" id="17" stroke="black" cx="12.24" stroke-width="1.44" r="2.088" fill="none"/>
      <g  cy="12.24" id="18" stroke="black" cx="12.24" stroke-width="1.44" r="2.088" fill="none"/>
      <g  cy="5.04" id="19" stroke="black" cx="12.24" stroke-width="1.44" r="2.088" fill="none"/>
     </g>
    </g>
   </g>
  </g>
  <g partID="854272540">
   <g transform="translate(88.3332,89.335)">
    <g transform="matrix(-1,0,0,-1,0,0)">
     <g  id="copper0">
      <g  cy="15.6024" id="20" stroke="black" cx="20.8462" stroke-width="1.44" r="1.98" fill="none"/>
      <g  cy="15.6024" id="21" stroke="black" cx="2.42064" stroke-width="1.44" r="1.98" fill="none"/>
      <g  cy="2.84616" id="22" stroke="black" cx="20.8462" stroke-width="1.44" r="1.98" fill="none"/>
      <g  cy="2.84616" id="23" stroke="black" cx="2.42064" stroke-width="1.44" r="1.98" fill="none"/>
     </g>
    </g>
   </g>
  </g>
  <g partID="854242580">
   <g transform="translate(36.7207,93.9778)">
    <g transform="matrix(0,-1,1,0,0,0)">
     <g flipped="1" id="copper0">
      <g transform="matrix(-1, 0, 0, 1, 19.152, 0)">
       <g>
        <g>
         <g>
          <rect height="6.336" id="24" width="3.456" stroke="none" connectorname="1" x="1.296" y="17.5187" stroke-width="0" stroke-linecap="round" fill="black"/>
          <rect height="6.336" id="25" width="3.456" stroke="none" connectorname="2" x="7.848" y="17.5187" stroke-width="0" stroke-linecap="round" fill="black"/>
          <rect height="6.336" id="26" width="3.456" stroke="none" connectorname="3" x="14.4" y="17.5187" stroke-width="0" stroke-linecap="round" fill="black"/>
          <rect height="6.23622" id="27" width="10.2047" stroke="none" connectorname="4" x="4.47364" y="0" stroke-width="0" stroke-linecap="round" fill="black"/>
          <g id="28"/>
         </g>
         <g id="29"/>
        </g>
       </g>
      </g>
     </g>
    </g>
   </g>
  </g>
  <g partID="854105480">
   <g transform="translate(145.321,36.1297)">
    <g transform="matrix(0,1,-1,0,0,0)">
     <g transform="matrix(1, 0, 0, 1, 0, -795.118)">
      <g id="copper0">
       <g>
        <g id="copper1">
         <g transform="matrix(1, 0, 0, 1, 0, 795.118)">
          <g id="0.3.1.0">
           <g stroke="black" id="30" d="m10.4882,23.3858a3.25984,3.25984,0,1,1,-6.51969,0,3.25984,3.25984,0,1,1,6.51969,0z" stroke-opacity="1" stroke-width="2.83465" style="opacity:0.98000004;stroke-miterlimit:4;stroke-dasharray:none" fill="none"/>
          </g>
         </g>
         <g transform="matrix(1, 0, 0, 1, 5.81102, 812.126)">
          <g id="0.3.1.1">
           <g stroke="black" id="31" d="m10.4882,23.3858a3.25984,3.25984,0,1,1,-6.51969,0,3.25984,3.25984,0,1,1,6.51969,0z" stroke-opacity="1" stroke-width="2.83465" style="opacity:0.98000004;stroke-miterlimit:4;stroke-dasharray:none" fill="none"/>
          </g>
         </g>
         <g transform="matrix(1, 0, 0, 1, 40.252, 812.126)">
          <g id="0.3.1.2">
           <g stroke="black" id="32" d="m10.4882,23.3858a3.25984,3.25984,0,1,1,-6.51969,0,3.25984,3.25984,0,1,1,6.51969,0z" stroke-opacity="1" stroke-width="2.83465" style="opacity:0.98000004;stroke-miterlimit:4;stroke-dasharray:none" fill="none"/>
          </g>
         </g>
         <g transform="matrix(1, 0, 0, 1, 5.81102, 812.126)">
          <g id="0.3.1.3">
           <g stroke="black" id="33" d="m10.4882,23.3858a3.25984,3.25984,0,1,1,-6.51969,0,3.25984,3.25984,0,1,1,6.51969,0z" stroke-opacity="1" stroke-width="2.83465" style="opacity:0.98000004;stroke-miterlimit:4;stroke-dasharray:none" fill="none"/>
          </g>
         </g>
         <g transform="matrix(1, 0, 0, 1, 40.252, 812.126)">
          <g id="0.3.1.4">
           <g stroke="black" id="34" d="m10.4882,23.3858a3.25984,3.25984,0,1,1,-6.51969,0,3.25984,3.25984,0,1,1,6.51969,0z" stroke-opacity="1" stroke-width="2.83465" style="opacity:0.98000004;stroke-miterlimit:4;stroke-dasharray:none" fill="none"/>
          </g>
         </g>
         <g transform="matrix(1, 0, 0, -1, 5.81102, 824.882)">
          <g id="0.3.1.5">
           <g stroke="black" id="35" d="m10.4882,23.3858a3.25984,3.25984,0,1,1,-6.51969,0,3.25984,3.25984,0,1,1,6.51969,0z" stroke-opacity="1" stroke-width="2.83465" style="opacity:0.98000004;stroke-miterlimit:4;stroke-dasharray:none" fill="none"/>
          </g>
         </g>
         <g transform="matrix(1, 0, 0, -1, 40.252, 824.882)">
          <g id="0.3.1.6">
           <g stroke="black" id="36" d="m10.4882,23.3858a3.25984,3.25984,0,1,1,-6.51969,0,3.25984,3.25984,0,1,1,6.51969,0z" stroke-opacity="1" stroke-width="2.83465" style="opacity:0.98000004;stroke-miterlimit:4;stroke-dasharray:none" fill="none"/>
          </g>
         </g>
        </g>
       </g>
      </g>
     </g>
    </g>
   </g>
  </g>
  <g partID="854106260">
   <g transform="translate(133.655,28.5296)">
    <g transform="matrix(-1,0,0,-1,0,0)">
     <g  id="copper0">
      <g  cy="3.96" id="37" stroke="black" connectorname="A" cx="2.808" stroke-width="1.39068" r="2.11266" fill="none"/>
      <g  cy="3.96" id="38" stroke="black" connectorname="C" cx="31.608" stroke-width="1.39068" r="2.11266" fill="none"/>
     </g>
    </g>
   </g>
  </g>
  <g partID="854181420">
   <g transform="translate(97.7992,3.3296)">
    <g  id="copper0">
     <g  cy="3.96" id="39" stroke="black" connectorname="A" cx="2.808" stroke-width="1.39068" r="2.11266" fill="none"/>
     <g  cy="3.96" id="40" stroke="black" connectorname="C" cx="31.608" stroke-width="1.39068" r="2.11266" fill="none"/>
    </g>
   </g>
  </g>
  <g partID="854106690">
   <g transform="translate(144.527,10.6016)">
    <g  id="copper0">
     <g  cy="8.208" id="41" stroke="black" cx="3.6" stroke-width="1.44" r="1.98" fill="none"/>
     <g  cy="8.208" id="42" stroke="black" cx="10.8" stroke-width="1.44" r="1.98" fill="none"/>
     <g  cy="8.208" id="43" stroke="black" cx="18" stroke-width="1.44" r="1.98" fill="none"/>
    </g>
   </g>
  </g>
  <g partID="854113100">
   <g transform="translate(167.621,20.3976)">
    <g transform="matrix(0,-1,1,0,0,0)">
     <g  id="copper0">
      <g  id="copper1">
       <g  cy="10.6336" id="44" stroke="black" cx="8.7876" stroke-width="1.13384" r="1.7008" fill="none"/>
       <g  height="3.4016" stroke="black" width="3.4016" id="45" x="7.0868" y="8.9328" stroke-width="1.13384" fill="none"/>
       <g  cy="3.5464" id="46" stroke="black" cx="8.7876" stroke-width="1.13384" r="1.7008" fill="none"/>
      </g>
     </g>
    </g>
   </g>
  </g>
  <g partID="854183770">
   <g transform="translate(130.667,8.5496)">
    <g transform="matrix(1,3.88578e-16,-3.88578e-16,1,0,0)">
     <g  id="copper0">
      <g  id="copper1">
       <!-- <rect width="55" x="35" y="35" fill="none" height="55" stroke="rgb(255, 191, 0)" stroke-width="20" /> -->
       <g  cy="4.5" stroke="black" id="47" cx="4.5" stroke-width="1.44" r="1.98" fill="none"/>
       <g  cy="4.5" stroke="black" id="48" cx="11.7" stroke-width="1.44" r="1.98" fill="none"/>
      </g>
     </g>
    </g>
   </g>
  </g>
  <g partID="854132900">
   <g transform="translate(67.7032,34.8296)">
    <g transform="matrix(-2.77556e-16,1,-1,-2.77556e-16,0,0)">
     <g  id="copper0">
      <g  id="copper1">
       <!-- <rect width="55" x="10" y="15.5" fill="none" height="55" stroke="rgb(255, 191, 0)" stroke-width="20" />  -->
       <g  cy="3.096" stroke="black" id="49" cx="2.7" stroke-width="1.44" r="1.98" fill="none"/>
       <g  cy="3.096" stroke="black" id="50" cx="31.5" stroke-width="1.44" r="1.98" fill="none"/>
      </g>
     </g>
    </g>
   </g>
  </g>
  <g partID="854126210">
   <g transform="translate(165.587,11.7896)">
    <g transform="matrix(-1,0,0,-1,0,0)">
     <g  id="copper0">
      <g  id="copper1">
       <!--  <rect width="55" x="10" y="35" fill="none" height="55" stroke="rgb(255, 191, 0)" stroke-width="20" /> -->
       <g  cy="4.5" stroke="black" id="51" cx="2.7" stroke-width="1.44" r="1.98" fill="none"/>
       <g  cy="4.5" stroke="black" id="52" cx="9.9" stroke-width="1.44" r="1.98" fill="none"/>
      </g>
     </g>
    </g>
   </g>
  </g>
  <g partID="854110300">
   <g transform="translate(179.627,30.5096)">
    <g transform="matrix(-1,0,0,-1,0,0)">
     <g  id="copper0">
      <g  id="copper1">
       <!--  <rect width="55" x="10" y="35" fill="none" height="55" stroke="rgb(255, 191, 0)" stroke-width="20" /> -->
       <g  cy="4.5" stroke="black" id="53" cx="2.7" stroke-width="1.44" r="1.98" fill="none"/>
       <g  cy="4.5" stroke="black" id="54" cx="9.9" stroke-width="1.44" r="1.98" fill="none"/>
      </g>
     </g>
    </g>
   </g>
  </g>
  <g partID="854112790">
   <g transform="translate(96.1967,35.1822)">
    <g transform="matrix(-1,0,0,-1,0,0)">
     <g  id="copper0">
      <g  cy="2.83465" id="55" stroke="black" connectorname="PWR" cx="5.66929" stroke-width="1.41732" r="2.12598" fill="none"/>
      <g  stroke="none" id="56" d="m8.50393,0a2.83464,2.83465,0,0,1,2.83464,2.83465l0,0a2.83464,2.83465,0,0,1,-2.83464,2.83465l-5.66929,0a2.83464,2.83465,0,0,1,-2.83464,-2.83465l0,0a2.83464,2.83465,0,0,1,2.83464,-2.83465l5.66929,0zM4.25197,2.83465a1.41732,1.41732,0,1,0,2.83464,0,1.41732,1.41732,0,1,0,-2.83464,0z" stroke-width="0" fill="black"/>
      <g  cy="20.6929" id="57" stroke="black" connectorname="GND@1" cx="5.66929" stroke-width="1.41732" r="2.12598" fill="none"/>
      <g  stroke="none" id="58" d="m8.50393,17.8583a2.83464,2.83465,0,0,1,2.83464,2.83465l0,0a2.83464,2.83465,0,0,1,-2.83464,2.83465l-5.66929,0a2.83464,2.83465,0,0,1,-2.83464,-2.83465l0,0a2.83464,2.83465,0,0,1,2.83464,-2.83465l5.66929,0zM4.25197,20.6929a1.41732,1.41732,0,1,0,2.83464,0,1.41732,1.41732,0,1,0,-2.83464,0z" stroke-width="0" fill="black"/>
      <g  cy="11.3386" id="59" stroke="black" connectorname="GND@2" cx="19.8425" stroke-width="1.41732" r="2.12598" fill="none"/>
      <g  stroke="none" id="60" d="m19.8425,5.66929a2.83464,2.83465,0,0,1,2.83464,2.83465l0,5.66929a2.83464,2.83465,0,0,1,-2.83464,2.83465l0,0a2.83464,2.83465,0,0,1,-2.83464,-2.83465l0,-5.66929a2.83464,2.83465,0,0,1,2.83464,-2.83465l0,0zM18.4252,11.3386a1.41732,1.41732,0,1,0,2.83464,0,1.41732,1.41732,0,1,0,-2.83464,0z" stroke-width="0" fill="black"/>
     </g>
    </g>
   </g>
  </g>
  <g partID="854121490">
   <g transform="translate(151.007,43.0432)">
    <g  id="copper0">
     <g  height="7.10929" id="61" width="7.10929" stroke="black" x="10.8454" y="5.33197" stroke-width="1.44" fill="none"/>
     <g  cy="8.8866" id="62" stroke="black" cx="14.4" stroke-width="1.44" r="3.55465" fill="none"/>
     <g  cy="23.0599" id="63" stroke="black" cx="14.4" stroke-width="1.44" r="3.55465" fill="none"/>
     <g  cy="37.2331" id="64" stroke="black" cx="14.4" stroke-width="1.44" r="3.55465" fill="none"/>
    </g>
   </g>
  </g>
  <g partID="12679620">
   <g transform="translate(59.9272,71.0096)">
    <g transform="matrix(-1,0,0,-1,0,0)">
     <g  id="copper0">
      <g  height="3.96" width="3.96" id="65" stroke="black" x="1.98" y="5.58" stroke-width="1.44" fill="none"/>
      <g  cy="7.56" id="66" stroke="black" cx="3.96" stroke-width="1.44" r="1.98" fill="none"/>
      <g  cy="7.56" id="67" stroke="black" cx="11.16" stroke-width="1.44" r="1.98" fill="none"/>
     </g>
    </g>
   </g>
  </g>
  <g partID="854164830">
   <g transform="translate(44.0152,21.2576)">
    <g  id="copper0">
     <g  cy="4.752" stroke="black" id="68" cx="4.752" stroke-width="1.44" r="1.98" fill="none"/>
     <g  cy="4.752" stroke="black" id="69" cx="20.592" stroke-width="1.44" r="1.98" fill="none"/>
    </g>
   </g>
  </g>
  <g partID="854167040">
   <g transform="translate(44.0152,28.4576)">
    <g  id="copper0">
     <g  cy="4.752" stroke="black" id="70" cx="4.752" stroke-width="1.44" r="1.98" fill="none"/>
     <g  cy="4.752" stroke="black" id="71" cx="20.592" stroke-width="1.44" r="1.98" fill="none"/>
    </g>
   </g>
  </g>
 </g>
</svg>
