<?xml version='1.0' encoding='UTF-8' standalone='no'?>
<!-- Created with Fritzing (http://www.fritzing.org/) -->
<svg xmlns="http://www.w3.org/2000/svg"  version="1.2" height="1.37795in" width="2.55906in" xmlns:svg="http://www.w3.org/2000/svg" x="0in" viewBox="0 0 184.252 99.2126" y="0in" baseProfile="tiny">
 <g partID="12452970">
  <g  id="board">
   <rect  height="98.6366" id="boardoutline" stroke="black" width="183.676" x="0.288" y="0.288" fill-opacity="0.5" stroke-width="0.5" fill="none"/>
  </g>
 </g>
 <g partID="854105482">
  <g transform="translate(145.321,36.1297)">
   <g transform="matrix(0,1,-1,0,0,0)">
    <g transform="matrix(1, 0, 0, 1, 0, -795.118)">
     <g id="copper1">
      <g>
       <g transform="matrix(1, 0, 0, 1, 0, 795.118)">
        <g id="0.3.1.0">
         <path stroke="black" id="connector2pin" d="m10.4882,23.3858a3.25984,3.25984,0,1,1,-6.51969,0,3.25984,3.25984,0,1,1,6.51969,0z" stroke-opacity="1" stroke-width="3.55465" style="opacity:0.98000004;stroke-miterlimit:4;stroke-dasharray:none" fill="black"/>
        </g>
       </g>
       <g transform="matrix(1, 0, 0, 1, 5.81102, 812.126)">
        <g id="0.3.1.1">
         <path stroke="black" id="path3782-7" d="m10.4882,23.3858a3.25984,3.25984,0,1,1,-6.51969,0,3.25984,3.25984,0,1,1,6.51969,0z" stroke-opacity="1" stroke-width="3.55465" style="opacity:0.98000004;stroke-miterlimit:4;stroke-dasharray:none" fill="black"/>
        </g>
       </g>
       <g transform="matrix(1, 0, 0, 1, 40.252, 812.126)">
        <g id="0.3.1.2">
         <path stroke="black" id="path3782-7-5" d="m10.4882,23.3858a3.25984,3.25984,0,1,1,-6.51969,0,3.25984,3.25984,0,1,1,6.51969,0z" stroke-opacity="1" stroke-width="3.55465" style="opacity:0.98000004;stroke-miterlimit:4;stroke-dasharray:none" fill="black"/>
        </g>
       </g>
       <g transform="matrix(1, 0, 0, 1, 5.81102, 812.126)">
        <g id="0.3.1.3">
         <path stroke="black" id="connector1pin" d="m10.4882,23.3858a3.25984,3.25984,0,1,1,-6.51969,0,3.25984,3.25984,0,1,1,6.51969,0z" stroke-opacity="1" stroke-width="3.55465" style="opacity:0.98000004;stroke-miterlimit:4;stroke-dasharray:none" fill="black"/>
        </g>
       </g>
       <g transform="matrix(1, 0, 0, 1, 40.252, 812.126)">
        <g id="0.3.1.4">
         <path stroke="black" id="connector0pin" d="m10.4882,23.3858a3.25984,3.25984,0,1,1,-6.51969,0,3.25984,3.25984,0,1,1,6.51969,0z" stroke-opacity="1" stroke-width="3.55465" style="opacity:0.98000004;stroke-miterlimit:4;stroke-dasharray:none" fill="black"/>
        </g>
       </g>
       <g transform="matrix(1, 0, 0, -1, 5.81102, 824.882)">
        <g id="0.3.1.5">
         <path stroke="black" id="connector4pin" d="m10.4882,23.3858a3.25984,3.25984,0,1,1,-6.51969,0,3.25984,3.25984,0,1,1,6.51969,0z" stroke-opacity="1" stroke-width="3.55465" style="opacity:0.98000004;stroke-miterlimit:4;stroke-dasharray:none" fill="black"/>
        </g>
       </g>
       <g transform="matrix(1, 0, 0, -1, 40.252, 824.882)">
        <g id="0.3.1.6">
         <path stroke="black" id="connector5pin" d="m10.4882,23.3858a3.25984,3.25984,0,1,1,-6.51969,0,3.25984,3.25984,0,1,1,6.51969,0z" stroke-opacity="1" stroke-width="3.55465" style="opacity:0.98000004;stroke-miterlimit:4;stroke-dasharray:none" fill="black"/>
        </g>
       </g>
      </g>
     </g>
    </g>
   </g>
  </g>
 </g>
 <g partID="854106262">
  <g transform="translate(133.655,28.5296)">
   <g transform="matrix(-1,0,0,-1,0,0)">
    <g  id="copper1">
     <circle  cy="3.96" id="connector0pad" stroke="black" connectorname="A" cx="2.808" stroke-width="2.11068" r="2.11266" fill="black"/>
     <circle  cy="3.96" id="connector1pad" stroke="black" connectorname="C" cx="31.608" stroke-width="2.11068" r="2.11266" fill="black"/>
     <g  id="copper0">
      <circle  cy="3.96" id="connector0pad" stroke="black" connectorname="A" cx="2.808" stroke-width="2.11068" r="2.11266" fill="black"/>
      <circle  cy="3.96" id="connector1pad" stroke="black" connectorname="C" cx="31.608" stroke-width="2.11068" r="2.11266" fill="black"/>
     </g>
    </g>
   </g>
  </g>
 </g>
 <g partID="854181422">
  <g transform="translate(97.7992,3.3296)">
   <g  id="copper1">
    <circle  cy="3.96" id="connector0pad" stroke="black" connectorname="A" cx="2.808" stroke-width="2.11068" r="2.11266" fill="black"/>
    <circle  cy="3.96" id="connector1pad" stroke="black" connectorname="C" cx="31.608" stroke-width="2.11068" r="2.11266" fill="black"/>
    <g  id="copper0">
     <circle  cy="3.96" id="connector0pad" stroke="black" connectorname="A" cx="2.808" stroke-width="2.11068" r="2.11266" fill="black"/>
     <circle  cy="3.96" id="connector1pad" stroke="black" connectorname="C" cx="31.608" stroke-width="2.11068" r="2.11266" fill="black"/>
    </g>
   </g>
  </g>
 </g>
 <g partID="854106692">
  <g transform="translate(144.527,10.6016)">
   <g  id="copper1">
    <g  id="copper0">
     <circle  cy="8.208" id="connector0pin" stroke="black" cx="3.6" stroke-width="2.16" r="1.98" fill="black"/>
     <circle  cy="8.208" id="connector1pin" stroke="black" cx="10.8" stroke-width="2.16" r="1.98" fill="black"/>
     <circle  cy="8.208" id="connector2pin" stroke="black" cx="18" stroke-width="2.16" r="1.98" fill="black"/>
    </g>
   </g>
  </g>
 </g>
 <g partID="854113102">
  <g transform="translate(167.621,20.3976)">
   <g transform="matrix(0,-1,1,0,0,0)">
    <g  id="copper1">
     <circle  cy="10.6336" id="connector1pad" stroke="black" cx="8.7876" stroke-width="1.85384" r="1.7008" fill="black"/>
     <rect  height="3.4016" stroke="black" width="3.4016" x="7.0868" y="8.9328" stroke-width="1.85384" fill="black"/>
     <circle  cy="3.5464" id="connector0pad" stroke="black" cx="8.7876" stroke-width="1.85384" r="1.7008" fill="black"/>
    </g>
   </g>
  </g>
 </g>
 <g partID="854183772">
  <g transform="translate(130.667,8.5496)">
   <g transform="matrix(1,3.88578e-16,-3.88578e-16,1,0,0)">
    <g  id="copper1">
     <!-- <rect width="55" x="35" y="35" fill="none" height="55" stroke="rgb(255, 191, 0)" stroke-width="20" /> -->
     <circle  cy="4.5" stroke="black" id="connector0pin" cx="4.5" stroke-width="2.16" r="1.98" fill="black"/>
     <circle  cy="4.5" stroke="black" id="connector1pin" cx="11.7" stroke-width="2.16" r="1.98" fill="black"/>
    </g>
   </g>
  </g>
 </g>
 <g partID="854126212">
  <g transform="translate(165.587,11.7896)">
   <g transform="matrix(-1,0,0,-1,0,0)">
    <g  id="copper1">
     <!--  <rect width="55" x="10" y="35" fill="none" height="55" stroke="rgb(255, 191, 0)" stroke-width="20" /> -->
     <circle  cy="4.5" stroke="black" id="connector0pin" cx="2.7" stroke-width="2.16" r="1.98" fill="black"/>
     <circle  cy="4.5" stroke="black" id="connector1pin" cx="9.9" stroke-width="2.16" r="1.98" fill="black"/>
    </g>
   </g>
  </g>
 </g>
 <g partID="854110302">
  <g transform="translate(179.627,30.5096)">
   <g transform="matrix(-1,0,0,-1,0,0)">
    <g  id="copper1">
     <!--  <rect width="55" x="10" y="35" fill="none" height="55" stroke="rgb(255, 191, 0)" stroke-width="20" /> -->
     <circle  cy="4.5" stroke="black" id="connector0pin" cx="2.7" stroke-width="2.16" r="1.98" fill="black"/>
     <circle  cy="4.5" stroke="black" id="connector1pin" cx="9.9" stroke-width="2.16" r="1.98" fill="black"/>
    </g>
   </g>
  </g>
 </g>
 <g partID="854112792">
  <g transform="translate(96.1967,35.1822)">
   <g transform="matrix(-1,0,0,-1,0,0)">
    <g  id="copper1">
     <circle  cy="2.83465" id="connector2pad" stroke="black" connectorname="PWR" cx="5.66929" stroke-width="2.13732" r="2.12598" fill="black"/>
     <path  stroke="black" d="m8.50393,0a2.83464,2.83465,0,0,1,2.83464,2.83465l0,0a2.83464,2.83465,0,0,1,-2.83464,2.83465l-5.66929,0a2.83464,2.83465,0,0,1,-2.83464,-2.83465l0,0a2.83464,2.83465,0,0,1,2.83464,-2.83465l5.66929,0zM4.25197,2.83465a1.41732,1.41732,0,1,0,2.83464,0,1.41732,1.41732,0,1,0,-2.83464,0z" stroke-width="0.72" fill="black"/>
     <circle  cy="20.6929" id="connector0pad" stroke="black" connectorname="GND@1" cx="5.66929" stroke-width="2.13732" r="2.12598" fill="black"/>
     <path  stroke="black" d="m8.50393,17.8583a2.83464,2.83465,0,0,1,2.83464,2.83465l0,0a2.83464,2.83465,0,0,1,-2.83464,2.83465l-5.66929,0a2.83464,2.83465,0,0,1,-2.83464,-2.83465l0,0a2.83464,2.83465,0,0,1,2.83464,-2.83465l5.66929,0zM4.25197,20.6929a1.41732,1.41732,0,1,0,2.83464,0,1.41732,1.41732,0,1,0,-2.83464,0z" stroke-width="0.72" fill="black"/>
     <circle  cy="11.3386" id="connector1pad" stroke="black" connectorname="GND@2" cx="19.8425" stroke-width="2.13732" r="2.12598" fill="black"/>
     <path  stroke="black" d="m19.8425,5.66929a2.83464,2.83465,0,0,1,2.83464,2.83465l0,5.66929a2.83464,2.83465,0,0,1,-2.83464,2.83465l0,0a2.83464,2.83465,0,0,1,-2.83464,-2.83465l0,-5.66929a2.83464,2.83465,0,0,1,2.83464,-2.83465l0,0zM18.4252,11.3386a1.41732,1.41732,0,1,0,2.83464,0,1.41732,1.41732,0,1,0,-2.83464,0z" stroke-width="0.72" fill="black"/>
     <g  id="copper0">
      <circle  cy="2.83465" id="connector2pad" stroke="black" connectorname="PWR" cx="5.66929" stroke-width="2.13732" r="2.12598" fill="black"/>
      <path  stroke="black" d="m8.50393,0a2.83464,2.83465,0,0,1,2.83464,2.83465l0,0a2.83464,2.83465,0,0,1,-2.83464,2.83465l-5.66929,0a2.83464,2.83465,0,0,1,-2.83464,-2.83465l0,0a2.83464,2.83465,0,0,1,2.83464,-2.83465l5.66929,0zM4.25197,2.83465a1.41732,1.41732,0,1,0,2.83464,0,1.41732,1.41732,0,1,0,-2.83464,0z" stroke-width="0.72" fill="black"/>
      <circle  cy="20.6929" id="connector0pad" stroke="black" connectorname="GND@1" cx="5.66929" stroke-width="2.13732" r="2.12598" fill="black"/>
      <path  stroke="black" d="m8.50393,17.8583a2.83464,2.83465,0,0,1,2.83464,2.83465l0,0a2.83464,2.83465,0,0,1,-2.83464,2.83465l-5.66929,0a2.83464,2.83465,0,0,1,-2.83464,-2.83465l0,0a2.83464,2.83465,0,0,1,2.83464,-2.83465l5.66929,0zM4.25197,20.6929a1.41732,1.41732,0,1,0,2.83464,0,1.41732,1.41732,0,1,0,-2.83464,0z" stroke-width="0.72" fill="black"/>
      <circle  cy="11.3386" id="connector1pad" stroke="black" connectorname="GND@2" cx="19.8425" stroke-width="2.13732" r="2.12598" fill="black"/>
      <path  stroke="black" d="m19.8425,5.66929a2.83464,2.83465,0,0,1,2.83464,2.83465l0,5.66929a2.83464,2.83465,0,0,1,-2.83464,2.83465l0,0a2.83464,2.83465,0,0,1,-2.83464,-2.83465l0,-5.66929a2.83464,2.83465,0,0,1,2.83464,-2.83465l0,0zM18.4252,11.3386a1.41732,1.41732,0,1,0,2.83464,0,1.41732,1.41732,0,1,0,-2.83464,0z" stroke-width="0.72" fill="black"/>
     </g>
    </g>
   </g>
  </g>
 </g>
 <g partID="854121492">
  <g transform="translate(151.007,43.0432)">
   <g  id="copper1">
    <g  id="copper0">
     <rect  height="7.10929" id="square" width="7.10929" stroke="black" x="10.8454" y="5.33197" stroke-width="2.16" fill="black"/>
     <circle  cy="8.8866" id="connector0pin" stroke="black" cx="14.4" stroke-width="2.16" r="3.55465" fill="black"/>
     <circle  cy="23.0599" id="connector1pin" stroke="black" cx="14.4" stroke-width="2.16" r="3.55465" fill="black"/>
     <circle  cy="37.2331" id="connector2pin" stroke="black" cx="14.4" stroke-width="2.16" r="3.55465" fill="black"/>
    </g>
   </g>
  </g>
 </g>
 <g partID="12679622">
  <g transform="translate(59.9272,71.0096)">
   <g transform="matrix(-1,0,0,-1,0,0)">
    <g  id="copper1">
     <g  id="copper0">
      <rect  height="3.96" width="3.96" id="rect11" stroke="black" x="1.98" y="5.58" stroke-width="2.16" fill="black"/>
      <circle  cy="7.56" id="connector0pin" stroke="black" cx="3.96" stroke-width="2.16" r="1.98" fill="black"/>
      <circle  cy="7.56" id="connector1pin" stroke="black" cx="11.16" stroke-width="2.16" r="1.98" fill="black"/>
     </g>
    </g>
   </g>
  </g>
 </g>
 <g partID="854164833">
  <g transform="translate(44.0152,21.2576)">
   <g  id="copper1">
    <circle  cy="4.752" stroke="black" id="connector0pad" cx="4.752" stroke-width="2.16" r="1.98" fill="black"/>
    <circle  cy="4.752" stroke="black" id="connector1pad" cx="20.592" stroke-width="2.16" r="1.98" fill="black"/>
   </g>
  </g>
 </g>
 <g partID="854167043">
  <g transform="translate(44.0152,28.4576)">
   <g  id="copper1">
    <circle  cy="4.752" stroke="black" id="connector0pad" cx="4.752" stroke-width="2.16" r="1.98" fill="black"/>
    <circle  cy="4.752" stroke="black" id="connector1pad" cx="20.592" stroke-width="2.16" r="1.98" fill="black"/>
   </g>
  </g>
 </g>
 <g partID="854271612">
  <g transform="translate(35.0872,82.8896)">
   <g transform="matrix(0,1,-1,0,0,0)">
    <g  id="copper1">
     <g  id="copper0">
      <circle  cy="5.04" id="connector0pin" stroke="black" cx="5.04" stroke-width="2.16" r="2.088" fill="black"/>
      <circle  cy="12.24" id="connector1pin" stroke="black" cx="5.04" stroke-width="2.16" r="2.088" fill="black"/>
      <circle  cy="19.44" id="connector2pin" stroke="black" cx="5.04" stroke-width="2.16" r="2.088" fill="black"/>
      <circle  cy="26.64" id="connector3pin" stroke="black" cx="5.04" stroke-width="2.16" r="2.088" fill="black"/>
     </g>
    </g>
   </g>
  </g>
 </g>
 <g partID="854272302">
  <g transform="translate(43.7272,20.9696)">
   <g  id="copper1">
    <g  id="copper0">
     <circle  cy="5.04" id="connector0pin" stroke="black" cx="5.04" stroke-width="2.16" r="2.088" fill="black"/>
     <circle  cy="12.24" id="connector1pin" stroke="black" cx="5.04" stroke-width="2.16" r="2.088" fill="black"/>
     <circle  cy="19.44" id="connector2pin" stroke="black" cx="5.04" stroke-width="2.16" r="2.088" fill="black"/>
     <circle  cy="26.64" id="connector3pin" stroke="black" cx="5.04" stroke-width="2.16" r="2.088" fill="black"/>
    </g>
   </g>
  </g>
 </g>
 <g partID="854272542">
  <g transform="translate(88.3332,89.335)">
   <g transform="matrix(-1,0,0,-1,0,0)">
    <g  id="copper1">
     <g  id="copper0">
      <circle  cy="15.6024" id="connector0pad" stroke="black" cx="20.8462" stroke-width="2.16" r="1.98" fill="black"/>
      <circle  cy="15.6024" id="connector1pad" stroke="black" cx="2.42064" stroke-width="2.16" r="1.98" fill="black"/>
      <circle  cy="2.84616" id="connector2pad" stroke="black" cx="20.8462" stroke-width="2.16" r="1.98" fill="black"/>
      <circle  cy="2.84616" id="connector3pad" stroke="black" cx="2.42064" stroke-width="2.16" r="1.98" fill="black"/>
     </g>
    </g>
   </g>
  </g>
 </g>
 <g partID="854132902">
  <g transform="translate(67.7032,34.8296)">
   <g transform="matrix(-2.77556e-16,1,-1,-2.77556e-16,0,0)">
    <g  id="copper1">
     <!-- <rect width="55" x="10" y="15.5" fill="none" height="55" stroke="rgb(255, 191, 0)" stroke-width="20" />  -->
     <circle  cy="3.096" stroke="black" id="connector0pin" cx="2.7" stroke-width="2.16" r="1.98" fill="black"/>
     <circle  cy="3.096" stroke="black" id="connector1pin" cx="31.5" stroke-width="2.16" r="1.98" fill="black"/>
    </g>
   </g>
  </g>
 </g>
 <g partID="854279882">
  <g transform="translate(3.4072,75.6896)">
   <g transform="matrix(0,-1,1,0,0,0)">
    <g  id="copper1">
     <g  id="copper0">
      <circle  cy="5.04" id="connector0pin" stroke="black" cx="5.04" stroke-width="2.16" r="2.088" fill="black"/>
      <circle  cy="12.24" id="connector1pin" stroke="black" cx="5.04" stroke-width="2.16" r="2.088" fill="black"/>
      <circle  cy="19.44" id="connector2pin" stroke="black" cx="5.04" stroke-width="2.16" r="2.088" fill="black"/>
      <circle  cy="26.64" id="connector3pin" stroke="black" cx="5.04" stroke-width="2.16" r="2.088" fill="black"/>
      <circle  cy="5.04" id="connector0pin" stroke="black" cx="5.04" stroke-width="2.16" r="2.088" fill="black"/>
      <circle  cy="12.24" id="connector1pin" stroke="black" cx="5.04" stroke-width="2.16" r="2.088" fill="black"/>
      <circle  cy="19.44" id="connector2pin" stroke="black" cx="5.04" stroke-width="2.16" r="2.088" fill="black"/>
      <circle  cy="26.64" id="connector3pin" stroke="black" cx="5.04" stroke-width="2.16" r="2.088" fill="black"/>
      <circle  cy="26.64" id="connector4pin" stroke="black" cx="12.24" stroke-width="2.16" r="2.088" fill="black"/>
      <circle  cy="19.44" id="connector5pin" stroke="black" cx="12.24" stroke-width="2.16" r="2.088" fill="black"/>
      <circle  cy="12.24" id="connector6pin" stroke="black" cx="12.24" stroke-width="2.16" r="2.088" fill="black"/>
      <circle  cy="5.04" id="connector7pin" stroke="black" cx="12.24" stroke-width="2.16" r="2.088" fill="black"/>
     </g>
    </g>
   </g>
  </g>
 </g>
</svg>
